<svg width="13" height="16" viewBox="0 0 13 16" fill="none" xmlns="http://www.w3.org/2000/svg">
<g clip-path="url(#clip0_133_2)">
<path d="M10.4317 10.5279C10.6145 10.2939 10.4518 9.92754 10.1403 9.91415C10.132 9.91376 10.1237 9.91336 10.1154 9.91336C9.41192 9.872 8.83249 9.3166 8.76119 8.61584C8.7608 8.61072 8.76041 8.6056 8.76001 8.60009C8.75765 8.57291 8.75017 8.54849 8.73914 8.52682C9.94094 7.73429 10.7339 6.37177 10.7339 4.82451C10.7339 4.0241 10.5216 3.27253 10.1497 2.62416C10.4227 2.59305 10.5775 2.28659 10.429 2.07349C11.5284 3.14609 12.211 4.64411 12.211 6.30165C12.211 7.9592 11.5296 9.45486 10.4317 10.5279Z" fill="#FF4E53"/>
<path d="M0.643921 15.739V8.76429C1.15437 9.93369 2.01731 10.9136 3.0982 11.5701V13.0461C3.0982 13.7929 2.79595 14.4686 2.30608 14.9581L2.30595 14.9583C1.8717 15.3928 1.29092 15.6798 0.643921 15.739Z" stroke="white" stroke-width="0.5"/>
<path d="M6.27141 0.393904C6.33719 0.393904 6.40297 0.394692 6.46836 0.396662C7.9715 0.440779 9.33401 1.047 10.353 2.01206C10.5571 2.20547 10.4653 2.53162 10.2187 2.60962C10.2136 2.61119 10.2081 2.61277 10.2022 2.61434C10.1967 2.61592 10.1911 2.6171 10.1852 2.61828C10.1825 2.61907 10.1801 2.61946 10.1774 2.61986C10.1683 2.62183 10.1592 2.62301 10.1498 2.62419C10.1419 2.62498 10.134 2.62616 10.1258 2.62616L10.1033 2.62734C9.3927 2.675 8.81406 3.24617 8.75852 3.95598C8.75852 3.9615 8.75773 3.9678 8.75734 3.97292C8.75694 3.98001 8.75615 3.98671 8.75497 3.9934C8.75379 3.9997 8.75261 4.00561 8.75103 4.01152C8.74985 4.01507 8.74906 4.01822 8.74788 4.02176C8.7467 4.0257 8.74512 4.02964 8.74394 4.03358C8.74 4.04382 8.73528 4.05367 8.72976 4.06352C8.7274 4.06785 8.72464 4.07258 8.72188 4.07652C8.72188 4.0773 8.7211 4.07809 8.7207 4.07849C8.66753 4.1612 8.56629 4.22068 8.47451 4.22068C8.47176 4.22068 8.4686 4.22068 8.46585 4.22068C8.42488 4.2195 8.38667 4.20611 8.35555 4.17775C7.83127 3.69994 7.18251 3.34819 6.41676 3.34819C6.40651 3.34819 6.39667 3.34819 6.38643 3.34858C6.35846 3.34779 6.33049 3.3474 6.30252 3.3474C4.83681 3.3474 3.62043 4.41488 3.38842 5.81482C3.37188 5.91447 3.36006 6.01571 3.35376 6.11812C3.35179 6.15357 3.34982 6.18942 3.34903 6.22526C3.34864 6.25087 3.34824 6.27608 3.34824 6.30168C3.34824 6.30798 3.34824 6.31468 3.34824 6.32098C3.35809 7.91511 4.63079 9.20948 6.21626 9.25478C6.24462 9.25596 6.27338 9.25596 6.30213 9.25596H6.33128C6.36082 9.25596 6.39037 9.25675 6.4203 9.25675C6.60426 9.25675 6.78427 9.23942 6.95916 9.20712C7.5189 9.10352 7.96953 8.78328 8.37052 8.41104C8.39731 8.38583 8.43197 8.3744 8.469 8.37283C8.47215 8.37283 8.4753 8.37283 8.47885 8.37283C8.55881 8.37283 8.64941 8.41852 8.70376 8.47761C8.70534 8.47918 8.70692 8.48115 8.70849 8.48273C8.71243 8.48746 8.71637 8.49218 8.72031 8.4973C8.72346 8.50124 8.72622 8.50558 8.72898 8.50991C8.73252 8.51582 8.73606 8.52133 8.73882 8.52724C8.74985 8.5489 8.75734 8.57333 8.7597 8.60051C8.76009 8.60602 8.76049 8.61114 8.76088 8.61626C8.83218 9.31702 9.41161 9.87242 10.1151 9.91378C10.1234 9.91378 10.1317 9.91418 10.1399 9.91457C10.1817 9.91654 10.2203 9.92442 10.2561 9.93742C10.2624 9.93978 10.268 9.94214 10.2739 9.94451C10.2849 9.94923 10.2955 9.95436 10.3058 9.95987C10.3066 9.95987 10.3073 9.95987 10.3077 9.96105C10.3129 9.9642 10.3184 9.96735 10.3235 9.97051C10.329 9.97366 10.3341 9.9772 10.3393 9.98075C10.3597 9.99414 10.3783 10.0103 10.3948 10.0276C10.4062 10.0394 10.4165 10.0517 10.4263 10.0643C10.5315 10.2057 10.5362 10.4168 10.3873 10.5602C9.42461 11.487 8.14875 12.0901 6.73385 12.1949C6.7114 12.1969 6.68855 12.1984 6.6657 12.1996C6.64601 12.2008 6.62592 12.202 6.60623 12.2032C6.50539 12.2083 6.40415 12.2106 6.30213 12.2106C5.22598 12.2106 4.2168 11.8865 3.34785 11.3838V11.428C1.67691 10.466 0.520797 8.71119 0.393566 6.67707V6.30207C0.393566 5.86878 0.440047 5.44651 0.528675 5.04001C0.553885 4.92459 0.582246 4.81075 0.614152 4.6981C0.627545 4.65043 0.641725 4.60317 0.6563 4.5555C0.670874 4.50823 0.686237 4.46097 0.701993 4.41409C0.838284 4.00798 1.0179 3.62234 1.23534 3.26192C1.29364 3.16463 1.35469 3.0693 1.4185 2.97555C1.46656 2.90583 1.5158 2.8365 1.56622 2.76875C1.63397 2.67816 1.70409 2.58992 1.77656 2.50366C1.8128 2.46033 1.84983 2.41778 1.88725 2.37564C1.89986 2.36146 1.91207 2.34767 1.92507 2.33388C1.93925 2.31773 1.95382 2.30198 1.9684 2.28622C1.99873 2.25353 2.02906 2.22162 2.05978 2.18971C2.14329 2.10345 2.22995 2.01955 2.31897 1.9384C2.40484 1.8608 2.49268 1.78478 2.58249 1.71191C2.60101 1.69694 2.61952 1.68237 2.63803 1.6674C2.74911 1.57995 2.86374 1.49526 2.98112 1.4153C3.00082 1.40191 3.02051 1.38891 3.04021 1.37591C3.0599 1.36251 3.07999 1.34952 3.09969 1.33652C3.15956 1.29791 3.21983 1.26089 3.28128 1.22386C3.30176 1.21165 3.32224 1.19983 3.34273 1.18762C3.38172 1.16517 3.42111 1.14272 3.4609 1.12066C3.48374 1.10845 3.50659 1.09584 3.52983 1.08363C3.55071 1.073 3.57159 1.06157 3.59286 1.05094C3.62082 1.03636 3.64918 1.02179 3.67794 1.00721C3.69212 1.00012 3.7063 0.993427 3.72088 0.98673C3.74727 0.973337 3.77405 0.960339 3.80123 0.948128C3.82684 0.935917 3.85283 0.9241 3.87883 0.912676C3.90719 0.899284 3.93555 0.886679 3.96391 0.874861C4.04506 0.839804 4.12699 0.806716 4.20971 0.775204C4.27274 0.751569 4.33615 0.728723 4.39997 0.707058C4.84429 0.556193 5.31225 0.456929 5.79675 0.415569C5.8452 0.411236 5.89365 0.408085 5.9425 0.404934C5.99134 0.402176 6.04018 0.400207 6.08942 0.398237C6.11542 0.396662 6.14142 0.396662 6.16742 0.395874C6.17648 0.395874 6.18593 0.395086 6.19499 0.395086C6.2202 0.395086 6.2458 0.394298 6.27101 0.394298M6.27101 0.000393904C6.24462 0.000393904 6.21744 0.000393904 6.19105 0.00118171C6.18238 0.00118171 6.17332 0.00118171 6.16466 0.00196952H6.16387H6.1619H6.15599C6.14851 0.00236343 6.14142 0.00236343 6.13393 0.00275733C6.11503 0.00275733 6.09415 0.00354514 6.07051 0.00472685C6.02049 0.00669637 5.97046 0.00866589 5.92083 0.0114232H5.91926H5.91768C5.87041 0.0145745 5.81684 0.0181196 5.76209 0.0228464C5.25474 0.0661759 4.75369 0.170954 4.27392 0.333637C4.20932 0.355696 4.14314 0.37933 4.07184 0.406115H4.07106L4.07027 0.406903C3.98085 0.441173 3.89341 0.47623 3.81069 0.512076C3.77917 0.525074 3.74766 0.539255 3.71615 0.553829C3.68779 0.566434 3.6614 0.578251 3.63619 0.590463C3.60861 0.603067 3.58025 0.61646 3.54992 0.631823C3.53377 0.639307 3.51801 0.646791 3.50226 0.654669H3.50147L3.50068 0.655457C3.47153 0.670425 3.44278 0.685 3.41442 0.699968C3.40103 0.706664 3.38803 0.713361 3.37503 0.720451C3.36715 0.72439 3.35966 0.728723 3.35179 0.732662L3.34942 0.733844L3.34706 0.735025C3.3317 0.743297 3.31634 0.751569 3.30097 0.759841L3.27576 0.773234L3.27301 0.77481L3.27025 0.776385C3.22849 0.799626 3.18753 0.822866 3.14656 0.8465L3.14381 0.848076L3.14105 0.849652C3.13159 0.855166 3.12214 0.860681 3.11269 0.866196C3.10166 0.872498 3.09063 0.879194 3.0796 0.885891C3.00318 0.931978 2.94213 0.969792 2.88619 1.00564L2.88462 1.00682L2.88304 1.008L2.86689 1.01864C2.85153 1.02848 2.83656 1.03873 2.8212 1.04897C2.80071 1.06236 2.78023 1.07615 2.75975 1.08993C2.63961 1.17187 2.51671 1.26207 2.3946 1.35818L2.39263 1.35976L2.39066 1.36133C2.38199 1.36842 2.37333 1.37512 2.36506 1.38182C2.35521 1.38969 2.34536 1.39757 2.33512 1.40584C2.24413 1.4795 2.15274 1.55829 2.05505 1.64652C1.95815 1.73515 1.8648 1.82535 1.77696 1.91595C1.74387 1.95022 1.71196 1.9841 1.67966 2.01837C1.66391 2.0353 1.64854 2.05185 1.63358 2.06879C1.62058 2.08297 1.60758 2.09715 1.59497 2.11172L1.593 2.11408C1.5481 2.1645 1.5095 2.20941 1.47444 2.25116C1.39723 2.34294 1.3216 2.43827 1.2507 2.5332C1.20028 2.60134 1.14907 2.67264 1.09393 2.75221L1.09314 2.753L1.09235 2.75379C1.02381 2.85423 0.958031 2.95704 0.896976 3.05945C0.66339 3.44666 0.471953 3.86066 0.328178 4.28883C0.310058 4.3424 0.294302 4.39164 0.279334 4.4397C0.266335 4.48184 0.250185 4.53581 0.234428 4.59174C0.20134 4.70913 0.170616 4.83202 0.143437 4.9561C0.0477178 5.39491 -0.000732422 5.8479 -0.000732422 6.30207V6.68928L5.53867e-05 6.70149C0.132407 8.81518 1.31018 10.7095 3.1509 11.7691L3.74136 12.109V12.0621C4.54335 12.4182 5.41663 12.6045 6.30174 12.6045C6.41242 12.6045 6.52114 12.6018 6.62592 12.5967H6.62789H6.62986L6.6594 12.5951L6.68776 12.5935C6.71415 12.5919 6.74015 12.5904 6.76576 12.588C8.22241 12.4797 9.60541 11.8605 10.6607 10.8446C10.9431 10.5724 10.9774 10.1458 10.7426 9.82988L10.7399 9.82634L10.7371 9.82279C10.7174 9.79798 10.6985 9.77592 10.6788 9.75543C10.6587 9.73456 10.6378 9.71486 10.6158 9.69714L10.589 9.64357L10.4614 9.59827C10.4507 9.59315 10.4401 9.58842 10.4295 9.58369L10.4251 9.58172L10.4208 9.57975L10.4176 9.57857C10.4102 9.57542 10.4031 9.57266 10.3948 9.56951L10.3928 9.56872L10.3909 9.56793C10.3172 9.54115 10.2392 9.52579 10.1588 9.52185C10.1494 9.52145 10.1399 9.52106 10.1305 9.52067C9.6255 9.48718 9.20718 9.08501 9.1536 8.5816L9.15282 8.57293V8.56978L9.15242 8.56663C9.14612 8.49179 9.12564 8.4201 9.09255 8.35353C9.08231 8.33265 9.07285 8.3169 9.06773 8.30902L9.06498 8.30468L9.06143 8.29878C9.05631 8.2905 9.04607 8.27435 9.0311 8.25545C9.0244 8.24678 9.0181 8.2389 9.0114 8.23102L8.99998 8.21724L8.99328 8.21054C8.99328 8.21054 8.9921 8.20936 8.99131 8.20857C8.85975 8.06716 8.66359 7.97971 8.47885 7.97971C8.46979 7.97971 8.46033 7.97971 8.45127 7.9805C8.31695 7.98641 8.19602 8.03604 8.10188 8.12388C7.66228 8.53197 7.28768 8.74664 6.88747 8.8207C6.73267 8.84906 6.5755 8.86364 6.4203 8.86364C6.39194 8.86364 6.36437 8.86363 6.3364 8.86285H6.33364H6.33089H6.30174C6.27653 8.86285 6.2525 8.86285 6.23241 8.86206H6.22965H6.22689C4.84193 8.82267 3.75002 7.70556 3.74136 6.31941V6.30838V6.30326V6.30247C3.74136 6.27962 3.74136 6.25717 3.74215 6.23432C3.74293 6.20557 3.74412 6.17563 3.74609 6.14294C3.7516 6.05549 3.76145 5.96726 3.77602 5.88099C3.98164 4.64137 5.04361 3.74248 6.30174 3.74248C6.32616 3.74248 6.35019 3.74248 6.37461 3.74367H6.38761H6.40061C6.40336 3.74367 6.40573 3.74367 6.40848 3.74367C6.41124 3.74367 6.41321 3.74367 6.41597 3.74367C6.99737 3.74367 7.56026 3.98828 8.08927 4.47042C8.18854 4.56102 8.3138 4.61144 8.45088 4.61577C8.45836 4.61577 8.46624 4.61616 8.47372 4.61616C8.69667 4.61616 8.92159 4.4913 9.04843 4.2975C9.0504 4.29434 9.05237 4.29119 9.05434 4.28844C9.06104 4.27819 9.06734 4.26756 9.07364 4.25614C9.08822 4.22974 9.10043 4.20375 9.11106 4.17657L9.11658 4.16278L9.11894 4.15451C9.12012 4.15057 9.1217 4.14702 9.12288 4.14309C9.12406 4.13954 9.12485 4.13639 9.12603 4.13324L9.12839 4.12654L9.13155 4.11472C9.13667 4.09582 9.13982 4.07967 9.14218 4.06785V4.06588L9.14297 4.06391C9.14651 4.04264 9.14927 4.02137 9.15045 3.9997L9.15124 3.99143V3.9871C9.1926 3.47266 9.61171 3.05827 10.1273 3.02243L10.1407 3.02164C10.162 3.02085 10.1793 3.01888 10.1884 3.01809H10.1931L10.199 3.01691C10.2093 3.01573 10.2274 3.01337 10.2487 3.00903C10.2565 3.00746 10.264 3.00628 10.2719 3.00431C10.2817 3.00234 10.2936 2.99958 10.3066 2.99604C10.3168 2.99328 10.3263 2.99052 10.3349 2.98776H10.3365L10.3381 2.98698C10.5886 2.9078 10.7808 2.69785 10.8403 2.43945C10.9002 2.17908 10.8194 1.91319 10.6244 1.72806C9.49866 0.660184 8.02664 0.0484502 6.47978 0.00275733C6.41439 0.000787809 6.34625 0 6.27141 0L6.27101 0.000393904Z" fill="white"/>
</g>
<defs>
<clipPath id="clip0_133_2">
<rect width="12.211" height="16" fill="white"/>
</clipPath>
</defs>
</svg>
