<svg width="620" height="644" viewBox="0 0 620 644" fill="none" xmlns="http://www.w3.org/2000/svg">
<g style="mix-blend-mode:luminosity" clip-path="url(#clip0_190_12)">
<path d="M298.202 0.288567C298.18 0.187091 298.158 0.0834096 298.136 -0.0180664C282.515 1.81512 267.287 6.93746 253.736 14.921C252.937 15.3909 252.07 15.971 251.887 16.8799C251.746 17.5792 252.055 18.2829 252.359 18.9293C260.204 35.6927 268.083 52.4384 275.996 69.1665C276.956 71.1938 278.156 73.4329 280.314 74.0462C281.556 74.3992 282.879 74.1278 284.141 73.8543C296.722 71.1321 320.048 71.7365 313.284 52.1538C308.729 34.6183 302.076 18.166 298.202 0.288567Z" fill="#734626"/>
<path d="M561.51 501.219C572.924 493.78 581.327 482.492 587.953 470.589C626.534 401.303 628.745 298.342 605.061 224.238C578.796 142.062 512.971 71.4372 429.94 48.0205C347.813 24.8619 246.251 43.5423 188.334 109.418C114.438 193.466 136.923 319.398 207.052 397.546C247.486 442.603 301.059 474.522 357.797 495.638C415.663 517.177 505.07 538 561.51 501.219Z" fill="#F49206"/>
<mask id="mask0_190_12" style="mask-type:luminance" maskUnits="userSpaceOnUse" x="142" y="38" width="479" height="484">
<path d="M561.51 501.219C572.924 493.78 581.327 482.492 587.953 470.589C626.534 401.303 628.745 298.342 605.061 224.238C578.796 142.062 512.971 71.4372 429.94 48.0205C347.813 24.8619 246.251 43.5423 188.334 109.418C114.438 193.466 136.923 319.398 207.052 397.546C247.486 442.603 301.059 474.522 357.797 495.638C415.663 517.177 505.07 538 561.51 501.219Z" fill="white"/>
</mask>
<g mask="url(#mask0_190_12)">
<path d="M303.666 -17.5173C259.972 -15.2363 216.527 -1.91871 179.098 21.8311C74.39 88.2692 47.7746 236.285 97.3434 344.871C145.701 450.799 254.702 524.74 366.114 548.399C418.136 559.447 477.448 562.054 519.098 529.321C533.481 518.016 544.711 503.171 553.99 487.438C585.119 434.644 595.085 371.392 591.375 310.188C581.924 154.319 483.089 -26.8884 303.666 -17.5173Z" fill="#FCA01A"/>
<path opacity="0.46" d="M426.785 483.681C207.465 538.567 -24.5778 229.016 188.621 60.2307C231.464 26.3112 285.802 7.3639 339.242 10.4369C433.18 15.8416 517.805 85.56 548.781 176.78C572.394 246.32 568.256 331.269 533.143 397.422C507.767 445.228 470.034 472.856 426.785 483.681Z" fill="#FD8D0D"/>
<path opacity="0.33" d="M388.123 367.204C306.891 389.999 209.377 350.992 165.573 278.305C105.594 178.777 177.15 19.1306 292.932 6.33143C376.758 -2.93598 463.634 70.2679 494.746 146.278C531.244 235.455 480.327 341.33 388.123 367.204Z" fill="#FCAF3F"/>
</g>
<mask id="mask1_190_12" style="mask-type:luminance" maskUnits="userSpaceOnUse" x="142" y="38" width="479" height="484">
<path d="M561.51 501.219C572.924 493.78 581.327 482.492 587.953 470.589C626.534 401.303 628.745 298.342 605.061 224.238C578.796 142.062 512.971 71.4372 429.94 48.0205C347.813 24.8619 246.251 43.5423 188.334 109.418C114.438 193.466 136.923 319.398 207.052 397.546C247.486 442.603 301.059 474.522 357.797 495.638C415.663 517.177 505.07 538 561.51 501.219Z" fill="white"/>
</mask>
<g mask="url(#mask1_190_12)">
<path opacity="0.1" d="M261.554 198.338C241.841 234.893 212.693 264.902 185.559 295.909C159.599 325.575 129.022 357.664 125.055 398.649C117.107 360.196 107.195 322.341 107.566 283.251C108.468 188.448 131.433 88.8627 220.833 40.3727C234.603 32.9031 250.005 26.6955 265.546 28.6698C272.164 29.5103 283.38 88.7922 284.509 95.9727C290.278 132.665 278.827 166.304 261.554 198.338Z" fill="black"/>
</g>
<mask id="mask2_190_12" style="mask-type:luminance" maskUnits="userSpaceOnUse" x="142" y="38" width="479" height="484">
<path d="M561.51 501.219C572.924 493.78 581.327 482.492 587.953 470.589C626.534 401.303 628.745 298.342 605.061 224.238C578.796 142.062 512.971 71.4372 429.94 48.0205C347.813 24.8619 246.251 43.5423 188.334 109.418C114.438 193.466 136.923 319.398 207.052 397.546C247.486 442.603 301.059 474.522 357.797 495.638C415.663 517.177 505.07 538 561.51 501.219Z" fill="white"/>
</mask>
<g mask="url(#mask2_190_12)">
<path opacity="0.2" d="M501.836 500.222C499.321 492.196 496.53 484.409 493.515 476.818C491.626 474.91 489.628 473.125 487.622 471.358C485.58 469.516 483.539 467.69 481.371 466.011C477.289 462.66 473.12 459.457 468.869 456.395C464.801 461.198 460.892 466.172 457.116 471.277V471.27L468.17 427.475C451.947 402.569 431.755 381.076 407.035 363.439C405.912 362.638 404.778 361.859 403.647 361.076C397.322 370.902 391.253 380.928 385.482 391.162L386.332 349.995C355.902 332.083 322.918 320.426 289.526 315.321C289.34 315.76 289.135 316.186 288.952 316.627C284.28 327.964 280.287 339.771 276.76 351.848C275.692 355.515 274.671 359.208 273.669 362.914L268.944 313.014C234.062 310.517 199.221 315.224 166.83 327.494C161.948 339.579 157.843 352.107 154.481 364.912C153.252 369.587 152.136 374.303 151.095 379.044L142.335 338.487C114.38 353.106 88.943 373.97 67.7963 401.342L68.5198 467.085L53.1087 438.043C49.1291 440.009 45.1561 442.001 41.1853 444.013C38.7609 448.895 36.4711 453.858 34.3357 458.903L34.3335 458.91C33.4952 460.893 32.6723 462.885 31.887 464.897C21.3203 491.876 22.6174 513.928 31.523 531.982C33.7489 536.495 36.4512 540.759 39.5617 544.787C40.3404 545.796 41.1434 546.786 41.9706 547.766C43.6251 549.722 45.3811 551.619 47.2231 553.461C49.9894 556.223 52.9565 558.862 56.0957 561.376C57.7634 562.711 59.4907 564.004 61.2511 565.272C62.8085 566.395 64.388 567.5 66.0116 568.573C67.1654 569.334 68.3345 570.081 69.5191 570.818C78.663 576.496 88.7158 581.427 99.1877 585.729C100.928 586.443 102.678 587.149 104.44 587.829C109.935 589.951 115.523 591.905 121.137 593.71C122.854 594.261 124.572 594.793 126.291 595.318C134.413 597.793 142.549 599.964 150.497 601.868C151.874 602.196 153.243 602.518 154.607 602.834C158.425 603.714 162.187 604.53 165.879 605.294C172.945 606.756 179.733 608.02 186.089 609.114C188.081 609.456 190.029 609.785 191.93 610.096C195.504 610.681 198.914 611.214 202.117 611.7C224.499 615.084 247.376 616.946 270.316 617.054C280.148 617.1 289.991 616.824 299.815 616.209C306.362 615.799 312.901 615.236 319.421 614.519C332.459 613.083 345.419 611.02 358.221 608.289C360.462 607.811 362.719 607.31 364.982 606.798C365.447 606.692 365.911 606.589 366.376 606.48C368.622 605.964 370.876 605.433 373.138 604.879C373.446 604.804 373.757 604.724 374.069 604.647C376.261 604.107 378.458 603.546 380.66 602.966C380.892 602.905 381.123 602.847 381.355 602.785C383.704 602.161 386.058 601.51 388.412 600.84C388.743 600.745 389.074 600.65 389.405 600.553C394.264 599.152 399.124 597.643 403.962 596.015C404.163 595.947 404.364 595.881 404.564 595.812C407.031 594.976 409.49 594.109 411.941 593.207C411.994 593.187 412.049 593.167 412.102 593.147C417.116 591.299 422.087 589.305 426.993 587.154C427.09 587.112 427.185 587.07 427.282 587.026C432.216 584.855 437.078 582.521 441.843 580.011C449.046 576.214 456.019 572.003 462.67 567.324C462.706 567.3 462.739 567.275 462.772 567.251C475.931 557.984 487.832 546.885 497.688 533.451C500.613 529.462 503.413 525.145 504.43 520.122C505.771 513.513 503.85 506.65 501.836 500.222ZM55.8728 512.567C55.3412 512.699 54.814 512.831 54.2823 512.964C54.8029 512.657 55.3324 512.37 55.853 512.066L55.8728 512.567Z" fill="black"/>
</g>
<path d="M202.806 227.559C175.897 259.195 141.128 282.462 108.122 307.123C76.5408 330.718 39.9411 355.719 27.5103 394.974C27.7618 355.708 25.9683 316.62 34.4879 278.467C55.1537 185.941 98.3935 93.3393 195.947 64.573C210.974 60.1412 227.33 57.2844 242.119 62.4597C248.417 64.6635 247.012 124.98 246.617 132.238C244.603 169.327 226.386 199.836 202.806 227.559Z" fill="#487220"/>
<path d="M35.0239 278.474C55.6897 185.945 98.9295 93.3463 196.483 64.58C209.968 60.6026 224.519 57.9157 238.051 61.1387C183.102 119.772 66.3711 251.499 28.0463 394.981C28.2956 355.715 26.5021 316.627 35.0239 278.474Z" fill="#3A5E14"/>
<path d="M262.237 39.9964C249.699 53.2633 239.794 63.1837 227.5 76.4594C215.181 89.6755 203.086 103.097 191.288 116.776C167.688 144.131 145.26 172.511 124.4 202.023C113.974 216.781 104.036 231.883 94.5462 247.261C89.757 254.927 85.2501 262.758 80.7035 270.57C76.3357 278.48 71.9082 286.362 67.8227 294.425C51.1608 326.503 37.3115 360.113 27.5103 394.979C36.7446 359.961 50.071 326.059 66.2542 293.633C70.2206 285.482 74.5311 277.508 78.7843 269.502C83.2162 261.596 87.6127 253.665 92.2895 245.9C101.561 230.319 111.29 215.005 121.51 200.024C141.964 170.069 164.018 141.214 187.269 113.37C198.892 99.4459 210.818 85.7731 222.968 72.3077C235.06 58.8224 246.548 45.6393 258.666 32.3989L262.237 39.9964Z" fill="#5D8D2A"/>
<path d="M211.872 89.1235C216.399 95.4878 219.957 102.534 222.933 109.778C225.819 117.063 228.086 124.572 229.97 132.16C231.713 139.78 233.123 147.47 233.994 155.224C234.879 162.972 235.39 170.772 235.066 178.579C232.073 163.283 229.231 148.158 225.68 133.184C223.91 125.699 221.87 118.302 219.699 110.925C217.378 103.595 214.797 96.3702 211.872 89.1235Z" fill="#5D8D2A"/>
<path d="M181.924 123.802C185.149 132.514 188.308 141.183 191.167 150.01C194.054 158.823 196.503 167.836 198.226 177.029C199.883 186.228 200.798 195.581 200.761 204.915C200.761 214.246 199.945 223.549 198.305 232.688C198.114 223.394 197.961 214.191 197.319 205.038C196.66 195.892 195.585 186.808 193.889 177.821C192.29 168.816 190.068 159.912 187.869 150.949C185.647 142 183.384 132.984 181.924 123.802Z" fill="#5D8D2A"/>
<path d="M145.434 169.861C147.733 178.902 149.555 188.03 150.92 197.262C152.306 206.488 153.124 215.839 153.175 225.23C153.155 234.616 152.392 244.005 150.821 253.226C149.284 262.454 147.08 271.536 144.214 280.411C145.286 271.141 146.528 261.962 147.409 252.778C148.267 243.595 148.823 234.422 148.767 225.239C148.805 216.055 148.189 206.865 147.514 197.641C146.802 188.423 145.931 179.177 145.434 169.861Z" fill="#5D8D2A"/>
<path d="M102.625 231.638C103.822 238.884 104.486 246.184 104.756 253.515C105.053 260.845 104.835 268.213 104.162 275.55C103.41 282.881 102.199 290.174 100.344 297.293C98.5259 304.418 96.2162 311.393 93.3175 318.144C94.4514 310.884 95.8103 303.739 96.9728 296.591C98.1178 289.442 99.1126 282.301 99.7744 275.12C100.52 267.948 100.919 260.733 101.325 253.486C101.707 246.237 101.998 238.957 102.625 231.638Z" fill="#5D8D2A"/>
<path d="M200.428 102.091C193.907 101.48 187.507 100.836 181.103 100.452C174.701 100.079 168.31 99.9532 161.931 100.147C155.549 100.271 149.178 100.754 142.811 101.438C136.438 102.142 130.111 103.178 123.69 104.434C129.516 101.438 135.832 99.4017 142.253 98.0406C148.679 96.6354 155.247 95.9427 161.823 95.7397C168.399 95.6272 174.992 95.9537 181.474 97.0413C187.953 98.0847 194.337 99.7039 200.428 102.091Z" fill="#5D8D2A"/>
<path d="M163.133 146.923L141.128 149.486C133.846 150.426 126.597 151.439 119.412 152.791C112.212 154.061 105.08 155.659 97.9699 157.432C90.8622 159.23 83.8052 161.288 76.6533 163.353C83.0838 159.598 89.9334 156.59 96.9794 154.136C104.019 151.652 111.285 149.826 118.622 148.454C125.977 147.161 133.405 146.316 140.852 146.069C148.293 145.791 155.745 146.007 163.133 146.923Z" fill="#5D8D2A"/>
<path d="M125.157 197.845C118.351 199.464 111.539 200.646 104.833 202.186C98.131 203.719 91.4799 205.308 85.056 207.494C78.6035 209.592 72.4223 212.332 66.4528 215.601C60.5143 218.934 54.7963 222.834 48.8247 226.476C53.6316 221.416 58.8157 216.702 64.6373 212.676C70.4656 208.663 76.9556 205.57 83.6597 203.311C90.3924 201.114 97.3015 199.667 104.248 198.807C111.186 197.884 118.179 197.644 125.157 197.845Z" fill="#5D8D2A"/>
<path d="M83.5956 263.202C78.9453 266.381 74.2598 269.325 69.614 272.308C64.9792 275.304 60.3598 278.291 55.8486 281.412C51.2954 284.474 46.8503 287.677 42.5067 291.002C38.2072 294.394 33.9319 297.781 30.4354 302.173C32.3591 296.801 36.2593 292.358 40.2389 288.412C44.2693 284.43 48.743 280.971 53.3668 277.768C58.0413 274.64 62.868 271.748 67.9308 269.319C72.9715 266.859 78.1755 264.724 83.5956 263.202Z" fill="#5D8D2A"/>
<path d="M257.528 339.684L262.498 389.581L380.956 376.663L380.06 417.829L467.001 454.14L455.377 497.935L452.752 571.594L323.525 620.783L157.227 611.553L34.6731 569.527L30.5898 464.713L46.7951 493.755L46.034 428.012L124.407 365.156L133.617 405.714L257.528 339.684Z" fill="#FFC701"/>
<path d="M119.494 387.553C118.011 395.68 116.831 403.829 115.9 411.987C97.5155 419.055 79.7836 427.559 62.9298 437.363C57.278 440.614 51.7299 444.016 46.2591 447.526L46.0341 428.011C68.2683 400.639 95.0139 379.773 124.407 365.156C122.512 372.586 120.862 380.06 119.494 387.553Z" fill="#FFEB01"/>
<path d="M459.822 464.053C459.803 464.038 459.783 464.02 459.763 464.005C441.358 449.527 421.008 437.707 400.252 427.405C395.061 424.804 389.828 422.351 384.598 419.887L380.06 417.827C386.129 407.593 392.508 397.567 399.157 387.741C400.346 388.524 401.54 389.301 402.72 390.102C428.711 407.739 449.94 429.232 466.999 454.137C464.548 457.409 462.139 460.702 459.822 464.053Z" fill="#FFEB01"/>
<path d="M114.155 431.358C113.599 439.796 113.291 448.232 113.207 456.648C113.057 472.447 113.677 488.15 114.806 503.779C91.396 510.993 68.8375 520.322 47.2297 531.398L46.3738 457.458C68.6786 447.436 91.1931 438.418 114.155 431.358Z" fill="#FFEB01"/>
<path d="M347.563 507.836C344.232 506.852 340.877 505.923 337.522 504.999C346.849 481.249 357.629 458.146 369.807 435.885L376.72 438.514C381.995 440.535 387.276 442.547 392.475 444.687C413.393 453.041 433.778 462.335 453.052 473.742C453.132 473.788 453.209 473.839 453.286 473.885C440.831 493.472 430.714 514.295 423.108 535.803C398.61 524.859 373.407 515.543 347.563 507.836Z" fill="#FFEB01"/>
<path d="M248.212 373.883C247.087 378.946 246.057 384.006 245.062 389.062C228.265 388.97 211.486 390.02 194.88 392.142C183.256 393.578 171.611 395.747 160.155 398.339C151.21 400.476 142.348 402.914 133.615 405.716C134.711 400.975 135.884 396.258 137.175 391.584C140.709 378.778 145.026 366.25 150.16 354.166C184.216 341.894 220.851 337.188 257.526 339.686C253.815 351.022 250.764 362.454 248.212 373.883Z" fill="#FFEB01"/>
<path d="M8.27397 491.564C11.2079 484.438 14.4993 477.483 18.0532 470.679C22.2269 468.668 26.4073 466.676 30.5899 464.71L42.8883 533.617C39.1712 535.573 35.4784 537.57 31.8208 539.626C35.7122 538.71 39.5926 537.788 43.4685 536.866L47.5584 559.789L47.2827 535.962C70.4148 530.458 93.3175 525.037 116.236 520.813C118.534 544.977 121.881 568.977 125.441 592.872C123.988 568.467 122.783 544 122.659 519.628C126.999 518.874 131.34 518.166 135.686 517.515C167.031 512.673 198.433 510.767 229.792 512.013C229.525 517.374 229.291 522.732 229.103 528.088C228.164 553.883 228.097 579.645 228.175 605.389C230.112 579.715 232.192 554.055 235.132 528.538C235.748 523.134 236.421 517.74 237.116 512.351C237.828 512.39 238.541 512.406 239.255 512.45C267.062 514.098 294.844 517.78 322.629 522.556C315.113 551.706 309.755 581.315 306.662 611.071C312.389 581.372 320.394 552.229 330.44 523.91C334.66 524.667 338.881 525.446 343.101 526.246C368.968 531.084 394.814 536.815 420.957 542.167C417.392 553.021 414.425 564.02 412.155 575.116C416.254 564.167 421.025 553.541 426.351 543.255C433.441 544.689 440.546 546.096 447.687 547.435C441.473 544.318 435.192 541.344 428.881 538.446C439.741 518.386 452.843 499.781 467.737 483.055C472.207 486.117 476.59 489.32 480.883 492.671C483.162 494.35 485.308 496.176 487.457 498.016C489.564 499.783 491.666 501.57 493.651 503.476C496.824 511.067 499.755 518.854 502.4 526.882C504.518 533.31 506.539 540.173 505.131 546.782C504.064 551.803 501.119 556.122 498.044 560.111C463.169 605.323 404.068 624.261 351.4 634.947C297.562 645.869 241.058 646.094 187.269 638.357C119 628.543 -36.1703 599.481 8.27397 491.564Z" fill="#FFEB01"/>
<path d="M231.285 487.887C197.778 486.746 164.055 490.551 131.852 498.895C128.81 499.682 125.799 500.556 122.783 501.414C123.072 486.642 123.835 471.924 125.28 457.294C126.284 447.129 127.638 437.021 129.353 427.005C130.191 426.783 131.027 426.544 131.865 426.328C137.263 424.954 142.653 423.584 148.101 422.483C153.506 421.199 158.986 420.288 164.424 419.227C175.394 417.506 186.285 415.808 197.397 414.939C208.464 413.981 219.543 413.2 230.628 413.138C233.968 413.019 237.308 413.028 240.645 413.055C238.468 425.474 236.434 438.121 234.941 450.691C233.412 463.08 232.218 475.482 231.285 487.887Z" fill="#FFEB01"/>
<path d="M363.299 410.782C354.036 407.18 344.614 403.957 335.029 401.336C312.267 394.957 288.818 391.156 265.297 389.719C264.364 389.662 263.431 389.631 262.498 389.581C263.552 385.874 264.627 382.182 265.747 378.515C269.456 366.437 273.651 354.631 278.566 343.294C278.76 342.853 278.974 342.427 279.171 341.988C314.279 347.091 348.96 358.749 380.956 376.662C374.717 387.869 368.812 399.241 363.299 410.782Z" fill="#FFEB01"/>
<path d="M240.694 488.324C240.636 488.32 240.579 488.318 240.522 488.315C242.379 476.359 244.464 464.455 246.875 452.638C249.377 440.088 252.361 427.807 255.571 415.365C255.736 414.717 255.908 414.072 256.076 413.424C258.659 413.53 261.243 413.653 263.819 413.85C269.347 414.083 274.84 414.668 280.347 415.131C285.824 415.804 291.326 416.358 296.772 417.24C307.719 418.707 318.528 420.957 329.26 423.477C337.729 425.402 346.046 427.869 354.305 430.529C344.084 454.016 335.355 478.077 328.162 502.52C299.653 495.196 270.393 490.107 240.694 488.324Z" fill="#FFEB01"/>
<path d="M351.395 634.952C393.68 626.373 440.098 612.459 474.81 583.918C420.269 596.991 364.203 603.688 308.113 603.902C307.622 606.291 307.121 608.678 306.658 611.076C306.907 608.685 307.194 606.298 307.472 603.909C281.134 603.986 254.792 602.625 228.603 599.841C228.461 601.692 228.311 603.543 228.172 605.394C228.166 603.527 228.17 601.661 228.166 599.795C213.231 598.198 198.343 596.148 183.536 593.616C163.72 590.225 143.855 585.906 124.698 579.758C124.938 584.13 125.177 588.504 125.437 592.875C124.766 588.379 124.118 583.876 123.467 579.372C103.739 572.948 84.7891 564.547 67.4676 553.138C60.3621 548.459 53.6139 543.222 47.2959 537.513L47.554 559.791L43.4641 536.869C39.5881 537.791 35.7078 538.713 31.8164 539.628C35.474 537.572 39.1668 535.576 42.8839 533.619L42.831 533.324C39.2021 529.79 35.7254 526.101 32.4517 522.238C22.5093 510.494 15.6574 498.517 10.8462 485.575C9.96376 487.56 9.09901 489.557 8.26956 491.568C-36.1769 599.484 118.993 628.548 187.26 638.367C241.055 646.101 297.558 645.876 351.395 634.952Z" fill="#FFA904"/>
</g>
<defs>
<clipPath id="clip0_190_12">
<rect width="620" height="644" fill="white"/>
</clipPath>
</defs>
</svg>
