<svg width="1536" height="1024" viewBox="0 0 1536 1024" fill="none" xmlns="http://www.w3.org/2000/svg">
<g clip-path="url(#clip0_76_749)">
<path d="M1536 0H0V1024H1536V0Z" fill="url(#paint0_linear_76_749)"/>
<mask id="mask0_76_749" style="mask-type:luminance" maskUnits="userSpaceOnUse" x="0" y="-17" width="1537" height="1024">
<path d="M1536 -17H0V1007H1536V-17Z" fill="white"/>
</mask>
<g mask="url(#mask0_76_749)">
<path d="M1471.9 392.023C1439.23 380.424 1403.21 383.697 1371.71 398.123C1336.49 414.255 1323.15 446.098 1294.55 468.951C1239.95 512.579 1188.53 420.533 1132.62 461.351C1096.31 487.854 1077.32 542.142 1032.03 553.897C990.274 564.73 967.533 525.104 931.223 521.327C899.799 518.058 862.072 550.933 845.316 577.272C842.614 581.518 840.073 586.024 837 589.914V877H1536V412.121C1514.06 412.621 1493.16 399.571 1471.9 392.023Z" fill="#FDFDFD"/>
<path d="M730.1 877.091V684.159C725.379 667.681 707.49 683.334 698.094 684.655C679.496 687.268 668.555 677.047 664.771 652.932C661.488 632.017 663.11 607.648 654.584 590.828C644.121 570.184 621.498 567.065 600.394 568.798C579.289 570.53 556.884 575.65 538.765 566.68C515.957 555.387 504.351 523.834 482.339 510.774C461.967 498.688 434.928 504.204 410.423 518.2C388.495 530.723 365.758 561.937 344.592 570.995C323.467 580.035 309.615 558.894 297.21 544.648C280.832 525.837 259.297 514.544 235.719 511.839C209.791 508.863 186.075 516.535 167.037 492.915C143.985 464.317 145.443 402.654 112.794 392.635C92.7212 386.474 67.9301 403.983 47.0487 400.477C26.966 397.106 14.8808 375.477 0 360.375V877.091H730.1Z" fill="#FDFDFD"/>
</g>
<mask id="mask1_76_749" style="mask-type:luminance" maskUnits="userSpaceOnUse" x="0" y="0" width="1537" height="1024">
<path d="M1536 0H0V1024H1536V0Z" fill="white"/>
</mask>
<g mask="url(#mask1_76_749)">
<path d="M1410.48 149.234C1401.95 144.962 1396.78 133.446 1389.8 127.04C1379.03 117.111 1362.85 112.05 1346.95 112.64C1329.37 113.338 1319.35 123.036 1305.24 128.031C1280.04 137.726 1265.58 101.073 1239.12 113.674C1222.98 121.877 1215.25 140.362 1198.1 144.093C1182.48 147.692 1171.83 134.685 1156.71 134.623C1146.8 134.603 1137.37 141.443 1131.81 149.232C1131.81 149.232 1409.39 150.585 1410.48 149.234Z" fill="url(#paint1_linear_76_749)"/>
<path d="M365.613 252.365C372.314 249.01 376.373 239.968 381.854 234.936C390.31 227.14 403.014 223.166 415.502 223.629C429.304 224.178 437.174 231.793 448.254 235.717C468.042 243.331 479.398 214.549 500.177 224.444C512.852 230.885 518.918 245.402 532.388 248.332C544.653 251.159 553.015 240.945 564.89 240.896C572.67 240.88 580.075 246.252 584.44 252.367C584.44 252.367 366.467 253.428 365.613 252.365Z" fill="url(#paint2_linear_76_749)"/>
<path d="M902.222 200.44C907.149 199.598 912.179 199.678 916.978 201.048C923.234 202.834 928.694 206.666 934.713 209.136C947.952 214.567 960.528 206.862 968.874 196.508C989.573 170.822 1003.95 143.092 1042.27 156.082C1058.5 161.579 1073.44 171.356 1090.43 173.564C1130.25 178.743 1170.13 141.367 1207.39 156.342C1235.65 167.705 1247.74 204.847 1276.77 214.09C1295.23 219.968 1314.97 212.701 1333.33 206.531C1353.79 199.656 1369.37 198.754 1389.75 205.007C1402.01 208.767 1414.6 220.49 1427.21 226.88H851.171C853.948 227.05 882.25 208.085 889.946 204.417C893.821 202.568 897.985 201.165 902.222 200.44Z" fill="url(#paint3_linear_76_749)"/>
<path d="M142.369 201.587C146.237 200.925 150.188 200.989 153.956 202.064C158.87 203.467 163.158 206.475 167.885 208.415C178.28 212.679 188.158 206.631 194.71 198.498C210.965 178.328 222.253 156.553 252.348 166.754C265.087 171.071 276.822 178.749 290.161 180.482C321.43 184.549 352.752 155.199 382.007 166.959C404.204 175.882 413.692 205.048 436.488 212.306C450.984 216.922 466.487 211.214 480.907 206.369C496.976 200.97 509.209 200.264 525.214 205.173C534.837 208.124 544.727 217.332 554.627 222.347H102.281C104.46 222.48 126.687 207.589 132.729 204.708C135.772 203.256 139.041 202.154 142.369 201.587Z" fill="url(#paint4_linear_76_749)"/>
<path d="M166.146 444.287C171.074 443.445 176.103 443.525 180.902 444.893C187.159 446.679 192.618 450.511 198.638 452.981C211.876 458.412 224.453 450.707 232.798 440.353C253.497 414.667 267.872 386.937 306.199 399.927C322.421 405.424 337.365 415.201 354.351 417.409C394.168 422.588 434.057 385.212 471.312 400.187C499.577 411.55 511.662 448.692 540.69 457.935C559.151 463.813 578.892 456.546 597.256 450.376C617.718 443.501 633.299 442.599 653.679 448.852C665.934 452.612 678.527 464.335 691.137 470.725H115.094C117.871 470.895 146.172 451.93 153.868 448.262C157.745 446.415 161.909 445.01 166.146 444.287Z" fill="url(#paint5_linear_76_749)"/>
<path d="M722.706 399.547C719.831 399.055 716.896 399.102 714.097 399.901C710.447 400.943 707.26 403.178 703.748 404.619C696.023 407.788 688.685 403.292 683.817 397.251C671.74 382.263 663.351 366.084 640.991 373.664C631.525 376.871 622.807 382.575 612.897 383.865C589.664 386.886 566.391 365.079 544.653 373.818C528.161 380.447 521.112 402.119 504.175 407.511C493.404 410.942 481.886 406.7 471.171 403.1C459.231 399.088 450.142 398.563 438.249 402.211C431.1 404.404 423.752 411.245 416.395 414.972H752.497C750.877 415.07 734.364 404.007 729.872 401.865C727.609 400.788 725.18 399.968 722.706 399.547Z" fill="url(#paint6_linear_76_749)"/>
</g>
<mask id="mask2_76_749" style="mask-type:luminance" maskUnits="userSpaceOnUse" x="0" y="0" width="1536" height="1024">
<path d="M1536 0H0V1024H1536V0Z" fill="white"/>
</mask>
<g mask="url(#mask2_76_749)">
<path d="M1536 781.128C1470.87 774.039 1269.54 760.621 1206.45 740.78V740.634C1205.58 740.42 1204.72 740.182 1203.86 739.962C1064.59 695.757 931.231 620.178 807.848 511.947C800.117 501.113 784.764 499.023 767.999 500.358C751.231 499.023 735.877 501.113 728.149 511.947C604.766 620.178 471.41 695.76 332.142 739.962C331.275 740.182 330.419 740.42 329.553 740.634V740.78C266.458 760.621 65.1351 774.039 0 781.128V1024H1536V781.128Z" fill="url(#paint7_linear_76_749)"/>
<path d="M690.258 557.265C708.432 532.531 725.723 536.232 715.577 569.682C747.424 566.745 710.453 553.372 772.094 538.311C778.502 523.883 807.223 560.771 826.329 570.647C838.508 573.854 806.439 549.474 823.939 550.558C845.805 552.528 855.71 578.691 856.189 552.751C851.126 548.201 846.399 543.846 841.974 539.693C827.679 529.375 813.533 518.591 799.551 507.3C793.43 499.405 781.273 497.879 767.998 498.852C754.721 497.879 742.564 499.403 736.444 507.3C722.415 518.629 708.219 529.451 693.872 539.802C690.01 543.474 685.955 547.289 681.638 551.291C694.86 540.035 675.893 569.272 690.258 557.265Z" fill="#FDFDFD"/>
</g>
</g>
<defs>
<linearGradient id="paint0_linear_76_749" x1="768" y1="1024" x2="768" y2="0" gradientUnits="userSpaceOnUse">
<stop stop-color="#FFFFEB"/>
<stop offset="0.6347" stop-color="#FAE6E7"/>
<stop offset="1" stop-color="#74B8ED"/>
</linearGradient>
<linearGradient id="paint1_linear_76_749" x1="1271.15" y1="149.835" x2="1271.15" y2="111.007" gradientUnits="userSpaceOnUse">
<stop stop-color="#FDFDFD" stop-opacity="0.2368"/>
<stop offset="0.7703" stop-color="#FDFDFD"/>
</linearGradient>
<linearGradient id="paint2_linear_76_749" x1="475.028" y1="252.837" x2="475.028" y2="222.347" gradientUnits="userSpaceOnUse">
<stop stop-color="#FDFDFD" stop-opacity="0.2368"/>
<stop offset="0.7703" stop-color="#FDFDFD"/>
</linearGradient>
<linearGradient id="paint3_linear_76_749" x1="1139.19" y1="226.88" x2="1139.19" y2="152.774" gradientUnits="userSpaceOnUse">
<stop stop-color="#FDFDFD" stop-opacity="0.2368"/>
<stop offset="0.7703" stop-color="#FDFDFD"/>
</linearGradient>
<linearGradient id="paint4_linear_76_749" x1="328.454" y1="222.347" x2="328.454" y2="164.155" gradientUnits="userSpaceOnUse">
<stop stop-color="#FDFDFD" stop-opacity="0.2368"/>
<stop offset="0.7703" stop-color="#FDFDFD"/>
</linearGradient>
<linearGradient id="paint5_linear_76_749" x1="403.117" y1="470.726" x2="403.117" y2="396.62" gradientUnits="userSpaceOnUse">
<stop stop-color="#FDFDFD" stop-opacity="0.2368"/>
<stop offset="0.7703" stop-color="#FDFDFD"/>
</linearGradient>
<linearGradient id="paint6_linear_76_749" x1="584.442" y1="414.973" x2="584.442" y2="371.735" gradientUnits="userSpaceOnUse">
<stop stop-color="#FDFDFD" stop-opacity="0.2368"/>
<stop offset="0.7703" stop-color="#FDFDFD"/>
</linearGradient>
<linearGradient id="paint7_linear_76_749" x1="767.999" y1="1024" x2="767.999" y2="499.999" gradientUnits="userSpaceOnUse">
<stop offset="0.3352" stop-color="white"/>
<stop offset="1" stop-color="#74B8ED"/>
</linearGradient>
<clipPath id="clip0_76_749">
<rect width="1536" height="1024" fill="white"/>
</clipPath>
</defs>
</svg>
