<svg width="1536" height="1024" viewBox="0 0 1536 1024" fill="none" xmlns="http://www.w3.org/2000/svg">
<g clip-path="url(#clip0_76_749)">
<mask id="mask0_76_749" style="mask-type:luminance" maskUnits="userSpaceOnUse" x="0" y="0" width="1537" height="1024">
<path d="M1536 0H0V1024H1536V0Z" fill="white"/>
</mask>
<g mask="url(#mask0_76_749)">
<mask id="mask1_76_749" style="mask-type:luminance" maskUnits="userSpaceOnUse" x="0" y="0" width="1537" height="1024">
<path d="M1536 0H0V1024H1536V0Z" fill="white"/>
</mask>
<g mask="url(#mask1_76_749)">
<path d="M1311.25 820.656L1323.59 802.673L1276.87 807.24C1138.83 751.466 1256.48 815.679 1220.93 764.84H1192.56C1192.56 764.84 1187.38 812.587 1207.31 800.053C1218.47 824.897 1292.28 828.465 1311.25 820.656Z" fill="#992B3B"/>
<path d="M1207.31 800.053V783.305L1218.47 790.563C1205.41 784.173 1195.1 767.429 1192.84 764.84H1162.72C1126.98 788.834 1099.23 799.607 1074.16 803.959L1034.94 793.414L1047.29 813.865C1073.63 823.169 1179.33 828.479 1207.31 800.053Z" fill="#BA3A47"/>
<path d="M1287.9 780.147H1187.65V903.93H1287.9V780.147Z" fill="#DDD3D4"/>
<path d="M1187.65 780.147H1063.37V903.93H1187.65V780.147Z" fill="#FDFDFD"/>
<path d="M1134.71 846.901H1114.94V900.336H1134.71V846.901Z" fill="#272747"/>
<path d="M1114.94 846.901H1108.87V900.336H1114.94V846.901Z" fill="#FFBA78"/>
<path d="M1140.78 846.901H1134.71V900.336H1140.78V846.901Z" fill="#FFBA78"/>
<path d="M1164.19 860.963V846.901H1147.73V860.963H1164.19Z" fill="#FFBA78"/>
<path d="M1102.25 860.963V846.901H1085.8V860.963H1102.25Z" fill="#FFBA78"/>
<path d="M1080.79 780.147H1063.37V903.93H1080.79V780.147Z" fill="#BA3A47"/>
<path d="M1187.65 780.147H1170.23V903.93H1187.65V780.147Z" fill="#BA3A47"/>
<path d="M1188.19 817.582H1063.37V826.62H1188.19V817.582Z" fill="#BA3A47"/>
<path d="M1130.3 822.632V797.497H1121.26V822.632H1130.3Z" fill="#BA3A47"/>
<path d="M1287.9 780.147H1270.48V903.93H1287.9V780.147Z" fill="#992B3B"/>
<path d="M1205.07 780.147H1187.65V903.93H1205.07V780.147Z" fill="#992B3B"/>
<path d="M1287.9 817.582H1188.19V826.62H1287.9V817.582Z" fill="#992B3B"/>
<path d="M1334.31 807.338L1348.83 786.178L1293.86 791.552C1131.44 725.928 1269.87 801.483 1228.03 741.665H1194.65C1194.65 741.665 1188.56 797.843 1212.01 783.096C1225.14 812.329 1311.99 816.527 1334.31 807.338Z" fill="#BA3A47"/>
<path d="M1212.01 783.096V763.39L1225.14 771.93C1209.78 764.412 1197.65 744.71 1194.99 741.665H1159.54C1117.49 769.896 1084.85 782.571 1055.35 787.691L1009.21 775.285L1023.73 799.349C1054.72 810.293 1179.09 816.544 1212.01 783.096Z" fill="#FF4E53"/>
<path d="M1357.88 787.599V771.006L1298.46 776.814C1251.85 757.981 1227.31 722.889 1227.31 722.889H1191.23C1191.23 722.889 1186.99 778.551 1212.34 762.612C1221.95 800.508 1334.07 802.339 1357.88 787.599Z" fill="#0D0D1E"/>
<path d="M1212.34 762.612V746.019L1224.18 755.603C1207.58 747.477 1194.47 726.18 1191.59 722.889H1153.28C1107.82 753.406 1072.54 767.107 1040.65 772.641L990.775 759.23V775.823C1025.16 799.283 1182.09 806.695 1212.34 762.612Z" fill="#1C1C35"/>
<path d="M1357.88 771.006C1303.54 780.538 1220.05 706.296 1220.05 706.296H1191.23C1191.23 706.296 1186.99 761.958 1212.34 746.019C1221.95 783.915 1334.07 785.746 1357.88 771.006Z" fill="#1C1C35"/>
<path d="M1212.34 746.02C1188.23 751.128 1191.59 706.297 1191.59 706.297H1153.28C1083.22 753.334 1037.32 760.42 990.773 759.23C1025.16 782.69 1182.09 790.104 1212.34 746.02Z" fill="#272747"/>
<path d="M1046.25 879.638H1187.65V875.344H1046.25V879.638Z" fill="#FF4E53"/>
<path d="M1046.25 892.325H1187.65V888.031H1046.25V892.325Z" fill="#FF4E53"/>
<path d="M1046.25 903.93H1187.65V899.635H1046.25V903.93Z" fill="#FF4E53"/>
<path d="M1137.12 903.931H1142.22V877.491H1137.12V903.931Z" fill="#FF4E53"/>
<path d="M1182.55 903.931H1187.65V877.491H1182.55V903.931Z" fill="#FF4E53"/>
<path d="M1091.69 903.931H1096.78V877.491H1091.69V903.931Z" fill="#FF4E53"/>
<path d="M1046.25 903.931H1051.35V877.491H1046.25V903.931Z" fill="#FF4E53"/>
<path d="M1187.65 879.638H1302.91V875.344H1187.65V879.638Z" fill="#BA3A47"/>
<path d="M1187.65 892.325H1302.91V888.031H1187.65V892.325Z" fill="#BA3A47"/>
<path d="M1187.65 903.93H1302.91V899.635H1187.65V903.93Z" fill="#BA3A47"/>
<path d="M1261.09 903.931H1266.19V877.491H1261.09V903.931Z" fill="#BA3A47"/>
<path d="M1297.81 903.931H1302.91V877.491H1297.81V903.931Z" fill="#BA3A47"/>
<path d="M1224.37 903.931H1229.47V877.491H1224.37V903.931Z" fill="#BA3A47"/>
<path d="M1187.65 903.931H1192.75V877.491H1187.65V903.931Z" fill="#BA3A47"/>
<path d="M1311.25 667.589L1323.59 649.605L1276.87 654.172C1138.83 598.399 1256.48 662.612 1220.93 611.772H1192.56C1192.56 611.772 1187.38 659.519 1207.31 646.986C1218.47 671.83 1292.28 675.398 1311.25 667.589Z" fill="#992B3B"/>
<path d="M1207.31 646.984V630.235L1218.47 637.493C1205.41 631.103 1195.1 614.359 1192.84 611.77H1162.72C1126.98 635.765 1099.23 646.537 1074.16 650.889L1034.94 640.344L1047.29 660.795C1073.63 670.099 1179.33 675.41 1207.31 646.984Z" fill="#BA3A47"/>
<path d="M1287.9 627.077H1187.65V750.86H1287.9V627.077Z" fill="#DDD3D4"/>
<path d="M1187.65 627.077H1063.37V750.86H1187.65V627.077Z" fill="#FDFDFD"/>
<path d="M1134.71 693.832H1114.94V747.266H1134.71V693.832Z" fill="#272747"/>
<path d="M1114.94 693.832H1108.87V747.266H1114.94V693.832Z" fill="#FFBA78"/>
<path d="M1140.78 693.832H1134.71V747.266H1140.78V693.832Z" fill="#FFBA78"/>
<path d="M1164.19 707.894V693.832H1147.74V707.894H1164.19Z" fill="#FFBA78"/>
<path d="M1102.25 707.894V693.832H1085.8V707.894H1102.25Z" fill="#FFBA78"/>
<path d="M1080.79 627.077H1063.37V750.86H1080.79V627.077Z" fill="#BA3A47"/>
<path d="M1187.65 627.077H1170.23V750.86H1187.65V627.077Z" fill="#BA3A47"/>
<path d="M1188.19 664.515H1063.37V673.552H1188.19V664.515Z" fill="#BA3A47"/>
<path d="M1130.3 669.564V644.429H1121.26V669.564H1130.3Z" fill="#BA3A47"/>
<path d="M1287.9 627.077H1270.48V750.86H1287.9V627.077Z" fill="#992B3B"/>
<path d="M1205.07 627.077H1187.65V750.86H1205.07V627.077Z" fill="#992B3B"/>
<path d="M1287.9 664.515H1188.19V673.552H1287.9V664.515Z" fill="#992B3B"/>
<path d="M1334.31 654.27L1348.83 633.111L1293.86 638.485C1131.44 572.86 1269.87 648.415 1228.03 588.597H1194.65C1194.65 588.597 1188.56 644.776 1212.01 630.028C1225.14 659.259 1311.99 663.458 1334.31 654.27Z" fill="#BA3A47"/>
<path d="M1212.01 630.028V610.322L1225.14 618.863C1209.78 611.344 1197.65 591.643 1194.99 588.597H1159.54C1117.49 616.829 1084.85 629.504 1055.35 634.624L1009.21 622.217L1023.73 646.281C1054.72 657.224 1179.09 663.474 1212.01 630.028Z" fill="#FF4E53"/>
<path d="M1357.88 634.53V617.937L1298.46 623.745C1251.85 604.909 1227.31 569.819 1227.31 569.819H1191.23C1191.23 569.819 1186.99 625.482 1212.34 609.542C1221.95 647.438 1334.07 649.269 1357.88 634.53Z" fill="#0D0D1E"/>
<path d="M1212.34 609.544V592.951L1224.18 602.536C1207.58 594.409 1194.47 573.112 1191.59 569.821H1153.28C1107.82 600.338 1072.54 614.039 1040.65 619.573L990.775 606.163V622.756C1025.16 646.214 1182.09 653.627 1212.34 609.544Z" fill="#1C1C35"/>
<path d="M1357.88 617.939C1303.54 627.472 1220.05 553.23 1220.05 553.23H1191.23C1191.23 553.23 1186.99 608.893 1212.34 592.953C1221.95 630.847 1334.07 632.678 1357.88 617.939Z" fill="#1C1C35"/>
<path d="M1212.34 592.951C1188.23 598.059 1191.59 553.228 1191.59 553.228H1153.28C1083.22 600.265 1037.32 607.351 990.773 606.161C1025.16 629.621 1182.09 637.034 1212.34 592.951Z" fill="#272747"/>
<path d="M1046.25 726.57H1187.65V722.276H1046.25V726.57Z" fill="#FF4E53"/>
<path d="M1046.25 739.257H1187.65V734.963H1046.25V739.257Z" fill="#FF4E53"/>
<path d="M1046.25 750.862H1187.65V746.568H1046.25V750.862Z" fill="#FF4E53"/>
<path d="M1137.12 750.861H1142.22V724.421H1137.12V750.861Z" fill="#FF4E53"/>
<path d="M1182.55 750.861H1187.65V724.421H1182.55V750.861Z" fill="#FF4E53"/>
<path d="M1091.69 750.861H1096.78V724.421H1091.69V750.861Z" fill="#FF4E53"/>
<path d="M1046.25 750.861H1051.35V724.421H1046.25V750.861Z" fill="#FF4E53"/>
<path d="M1187.65 726.57H1302.91V722.276H1187.65V726.57Z" fill="#BA3A47"/>
<path d="M1187.65 739.257H1302.91V734.963H1187.65V739.257Z" fill="#BA3A47"/>
<path d="M1187.65 750.862H1302.91V746.568H1187.65V750.862Z" fill="#BA3A47"/>
<path d="M1261.09 750.861H1266.19V724.421H1261.09V750.861Z" fill="#BA3A47"/>
<path d="M1297.81 750.861H1302.91V724.421H1297.81V750.861Z" fill="#BA3A47"/>
<path d="M1224.37 750.861H1229.47V724.421H1224.37V750.861Z" fill="#BA3A47"/>
<path d="M1187.65 750.861H1192.75V724.421H1187.65V750.861Z" fill="#BA3A47"/>
<path d="M1311.25 514.519L1323.59 496.536L1276.87 501.103C1138.83 445.328 1256.48 509.543 1220.93 458.703H1192.56C1192.56 458.703 1187.38 506.45 1207.31 493.916C1218.47 518.761 1292.28 522.328 1311.25 514.519Z" fill="#992B3B"/>
<path d="M1207.31 493.916V477.168L1218.47 484.426C1205.41 478.036 1195.1 461.292 1192.84 458.703H1162.72C1126.98 482.699 1099.23 493.47 1074.16 497.822L1034.94 487.277L1047.29 507.728C1073.63 517.03 1179.33 522.343 1207.31 493.916Z" fill="#BA3A47"/>
<path d="M1287.9 474.008H1187.65V597.793H1287.9V474.008Z" fill="#DDD3D4"/>
<path d="M1187.65 474.008H1063.37V597.793H1187.65V474.008Z" fill="#FDFDFD"/>
<path d="M1134.71 540.762H1114.94V594.197H1134.71V540.762Z" fill="#272747"/>
<path d="M1114.94 540.762H1108.87V594.197H1114.94V540.762Z" fill="#FFBA78"/>
<path d="M1140.78 540.762H1134.71V594.197H1140.78V540.762Z" fill="#FFBA78"/>
<path d="M1164.19 554.825V540.764H1147.73V554.825H1164.19Z" fill="#FFBA78"/>
<path d="M1102.25 554.825V540.764H1085.8V554.825H1102.25Z" fill="#FFBA78"/>
<path d="M1080.79 474.008H1063.37V597.793H1080.79V474.008Z" fill="#BA3A47"/>
<path d="M1187.65 474.008H1170.23V597.793H1187.65V474.008Z" fill="#BA3A47"/>
<path d="M1188.19 511.445H1063.37V520.483H1188.19V511.445Z" fill="#BA3A47"/>
<path d="M1130.3 516.495V491.36H1121.26V516.495H1130.3Z" fill="#BA3A47"/>
<path d="M1287.9 474.008H1270.48V597.793H1287.9V474.008Z" fill="#992B3B"/>
<path d="M1205.07 474.008H1187.65V597.793H1205.07V474.008Z" fill="#992B3B"/>
<path d="M1287.9 511.445H1188.19V520.483H1287.9V511.445Z" fill="#992B3B"/>
<path d="M1334.31 501.201L1348.83 480.041L1293.86 485.415C1131.44 419.791 1269.87 495.346 1228.03 435.528H1194.65C1194.65 435.528 1188.56 491.706 1212.01 476.959C1225.14 506.192 1311.99 510.388 1334.31 501.201Z" fill="#BA3A47"/>
<path d="M1212.01 476.959V457.251L1225.14 465.791C1209.78 458.273 1197.65 438.571 1194.99 435.526H1159.54C1117.49 463.76 1084.85 476.433 1055.35 481.553L1009.21 469.146L1023.73 493.21C1054.72 504.156 1179.09 510.405 1212.01 476.959Z" fill="#FF4E53"/>
<path d="M1357.88 481.462V464.87L1298.46 470.678C1251.85 451.844 1227.31 416.752 1227.31 416.752H1191.23C1191.23 416.752 1186.99 472.414 1212.34 456.475C1221.95 494.371 1334.07 496.202 1357.88 481.462Z" fill="#0D0D1E"/>
<path d="M1212.34 456.475V439.882L1224.18 449.467C1207.58 441.34 1194.47 420.043 1191.59 416.752H1153.28C1107.82 447.269 1072.54 460.97 1040.65 466.504L990.775 453.094V469.686C1025.16 493.144 1182.09 500.558 1212.34 456.475Z" fill="#1C1C35"/>
<path d="M1357.88 464.869C1303.54 474.401 1220.05 400.159 1220.05 400.159H1191.23C1191.23 400.159 1186.99 455.821 1212.34 439.882C1221.95 477.778 1334.07 479.609 1357.88 464.869Z" fill="#1C1C35"/>
<path d="M1212.34 439.882C1188.23 444.989 1191.59 400.159 1191.59 400.159H1153.28C1083.22 447.195 1037.32 454.281 990.773 453.091C1025.16 476.553 1182.09 483.965 1212.34 439.882Z" fill="#272747"/>
<path d="M1046.25 573.5H1187.65V569.206H1046.25V573.5Z" fill="#FF4E53"/>
<path d="M1046.25 586.187H1187.65V581.893H1046.25V586.187Z" fill="#FF4E53"/>
<path d="M1046.25 597.792H1187.65V593.497H1046.25V597.792Z" fill="#FF4E53"/>
<path d="M1137.12 597.793H1142.22V571.353H1137.12V597.793Z" fill="#FF4E53"/>
<path d="M1182.55 597.793H1187.65V571.353H1182.55V597.793Z" fill="#FF4E53"/>
<path d="M1091.69 597.793H1096.78V571.353H1091.69V597.793Z" fill="#FF4E53"/>
<path d="M1046.25 597.793H1051.35V571.353H1046.25V597.793Z" fill="#FF4E53"/>
<path d="M1187.65 573.5H1302.91V569.206H1187.65V573.5Z" fill="#BA3A47"/>
<path d="M1187.65 586.187H1302.91V581.893H1187.65V586.187Z" fill="#BA3A47"/>
<path d="M1187.65 597.792H1302.91V593.497H1187.65V597.792Z" fill="#BA3A47"/>
<path d="M1261.09 597.793H1266.19V571.353H1261.09V597.793Z" fill="#BA3A47"/>
<path d="M1297.81 597.793H1302.91V571.353H1297.81V597.793Z" fill="#BA3A47"/>
<path d="M1224.37 597.793H1229.47V571.353H1224.37V597.793Z" fill="#BA3A47"/>
<path d="M1187.65 597.793H1192.75V571.353H1187.65V597.793Z" fill="#BA3A47"/>
<path d="M1311.25 361.451L1323.59 343.468L1276.87 348.035C1138.83 292.262 1256.48 356.475 1220.93 305.635H1192.56C1192.56 305.635 1187.38 353.382 1207.31 340.849C1218.47 365.691 1292.28 369.258 1311.25 361.451Z" fill="#992B3B"/>
<path d="M1207.31 340.847V324.098L1218.47 331.356C1205.41 324.966 1195.1 308.222 1192.84 305.633H1162.72C1126.98 329.628 1099.23 340.4 1074.16 344.752L1034.94 334.207L1047.29 354.658C1073.63 363.962 1179.33 369.273 1207.31 340.847Z" fill="#BA3A47"/>
<path d="M1287.9 320.94H1187.65V444.723H1287.9V320.94Z" fill="#DDD3D4"/>
<path d="M1187.65 320.94H1063.37V444.723H1187.65V320.94Z" fill="#FDFDFD"/>
<path d="M1134.71 387.695H1114.94V441.129H1134.71V387.695Z" fill="#272747"/>
<path d="M1114.94 387.695H1108.87V441.129H1114.94V387.695Z" fill="#FFBA78"/>
<path d="M1140.78 387.695H1134.71V441.129H1140.78V387.695Z" fill="#FFBA78"/>
<path d="M1164.19 401.756V387.695H1147.73V401.756H1164.19Z" fill="#FFBA78"/>
<path d="M1102.25 401.756V387.695H1085.8V401.756H1102.25Z" fill="#FFBA78"/>
<path d="M1080.79 320.94H1063.37V444.723H1080.79V320.94Z" fill="#BA3A47"/>
<path d="M1187.65 320.94H1170.23V444.723H1187.65V320.94Z" fill="#BA3A47"/>
<path d="M1188.19 358.375H1063.37V367.413H1188.19V358.375Z" fill="#BA3A47"/>
<path d="M1130.29 363.426V338.291H1121.26V363.426H1130.29Z" fill="#BA3A47"/>
<path d="M1287.9 320.94H1270.48V444.723H1287.9V320.94Z" fill="#992B3B"/>
<path d="M1205.07 320.94H1187.65V444.723H1205.07V320.94Z" fill="#992B3B"/>
<path d="M1287.9 358.375H1188.19V367.413H1287.9V358.375Z" fill="#992B3B"/>
<path d="M1334.31 348.131L1348.83 326.971L1293.86 332.343C1131.44 266.719 1269.87 342.274 1228.03 282.456H1194.65C1194.65 282.456 1188.56 338.635 1212.01 323.887C1225.14 353.122 1311.99 357.321 1334.31 348.131Z" fill="#BA3A47"/>
<path d="M1212.01 323.889V304.183L1225.14 312.724C1209.78 305.205 1197.65 285.504 1194.99 282.458H1159.54C1117.49 310.69 1084.85 323.365 1055.35 328.485L1009.21 316.078L1023.73 340.142C1054.72 351.087 1179.09 357.337 1212.01 323.889Z" fill="#FF4E53"/>
<path d="M1357.88 328.393V311.8L1298.46 317.608C1251.85 298.774 1227.31 263.682 1227.31 263.682H1191.23C1191.23 263.682 1186.99 319.345 1212.34 303.405C1221.95 341.301 1334.07 343.132 1357.88 328.393Z" fill="#0D0D1E"/>
<path d="M1212.34 303.407V286.814L1224.18 296.399C1207.58 288.273 1194.47 266.975 1191.59 263.684H1153.28C1107.82 294.201 1072.54 307.903 1040.65 313.436L990.775 300.026V316.619C1025.16 340.077 1182.09 347.49 1212.34 303.407Z" fill="#1C1C35"/>
<path d="M1357.88 311.802C1303.54 321.333 1220.05 247.091 1220.05 247.091H1191.23C1191.23 247.091 1186.99 302.754 1212.34 286.814C1221.95 324.708 1334.07 326.539 1357.88 311.802Z" fill="#1C1C35"/>
<path d="M1212.34 286.814C1188.23 291.922 1191.59 247.091 1191.59 247.091H1153.28C1083.22 294.128 1037.32 301.214 990.773 300.024C1025.16 323.484 1182.09 330.897 1212.34 286.814Z" fill="#272747"/>
<path d="M1046.25 420.433H1187.65V416.138H1046.25V420.433Z" fill="#FF4E53"/>
<path d="M1046.25 433.12H1187.65V428.825H1046.25V433.12Z" fill="#FF4E53"/>
<path d="M1046.25 444.724H1187.65V440.43H1046.25V444.724Z" fill="#FF4E53"/>
<path d="M1137.12 444.723H1142.22V418.283H1137.12V444.723Z" fill="#FF4E53"/>
<path d="M1182.55 444.723H1187.65V418.283H1182.55V444.723Z" fill="#FF4E53"/>
<path d="M1091.69 444.723H1096.78V418.283H1091.69V444.723Z" fill="#FF4E53"/>
<path d="M1046.25 444.723H1051.35V418.283H1046.25V444.723Z" fill="#FF4E53"/>
<path d="M1187.65 420.433H1302.91V416.138H1187.65V420.433Z" fill="#BA3A47"/>
<path d="M1187.65 433.12H1302.91V428.825H1187.65V433.12Z" fill="#BA3A47"/>
<path d="M1187.65 444.724H1302.91V440.43H1187.65V444.724Z" fill="#BA3A47"/>
<path d="M1261.09 444.723H1266.19V418.283H1261.09V444.723Z" fill="#BA3A47"/>
<path d="M1297.81 444.723H1302.91V418.283H1297.81V444.723Z" fill="#BA3A47"/>
<path d="M1224.37 444.723H1229.47V418.283H1224.37V444.723Z" fill="#BA3A47"/>
<path d="M1187.65 444.723H1192.75V418.283H1187.65V444.723Z" fill="#BA3A47"/>
<path d="M1220.05 237.093H1153.28V247.091H1220.05V237.093Z" fill="#272747"/>
<path d="M1212.34 227.094H1160.99V237.093H1212.34V227.094Z" fill="#272747"/>
<path d="M1202.82 217.098H1170.51V227.097H1202.82V217.098Z" fill="#272747"/>
<path d="M1190.96 101.175H1182.36V217.096H1190.96V101.175Z" fill="#272747"/>
<path d="M1500.71 904.198H1026.99V914.381H1500.71V904.198Z" fill="#272747"/>
<path d="M1500.71 914.381H1014.47V924.563H1500.71V914.381Z" fill="#272747"/>
<path d="M1500.71 924.563H1001.95V934.746H1500.71V924.563Z" fill="#272747"/>
<path d="M1500.71 934.746H989.434V944.929H1500.71V934.746Z" fill="#272747"/>
<path d="M1500.71 944.929H976.914V955.111H1500.71V944.929Z" fill="#272747"/>
<path d="M1500.71 955.111H964.395V965.294H1500.71V955.111Z" fill="#272747"/>
<path d="M1500.71 965.294H951.877V975.477H1500.71V965.294Z" fill="#272747"/>
<path d="M1500.71 975.477H939.358V985.659H1500.71V975.477Z" fill="#272747"/>
<path d="M1500.71 985.659H926.839V995.842H1500.71V985.659Z" fill="#272747"/>
<path d="M1500.71 995.84H914.319V1006.02H1500.71V995.84Z" fill="#272747"/>
<path d="M1500.72 1006.02H901.8V1016.21H1500.72V1006.02Z" fill="#272747"/>
<path d="M1500.71 1016.21H889.282V1026.39H1500.71V1016.21Z" fill="#272747"/>
<path d="M1500.71 904.198H1026.99V905.865H1500.71V904.198Z" fill="#3F3E56"/>
<path d="M1500.71 914.381H1014.47V916.048H1500.71V914.381Z" fill="#3F3E56"/>
<path d="M1500.71 924.563H1001.95V926.23H1500.71V924.563Z" fill="#3F3E56"/>
<path d="M1500.71 934.746H989.434V936.413H1500.71V934.746Z" fill="#3F3E56"/>
<path d="M1500.71 944.929H976.914V946.596H1500.71V944.929Z" fill="#3F3E56"/>
<path d="M1500.71 955.111H964.395V956.778H1500.71V955.111Z" fill="#3F3E56"/>
<path d="M1500.71 965.294H951.877V966.961H1500.71V965.294Z" fill="#3F3E56"/>
<path d="M1500.71 975.477H939.358V977.144H1500.71V975.477Z" fill="#3F3E56"/>
<path d="M1500.71 985.659H926.839V987.326H1500.71V985.659Z" fill="#3F3E56"/>
<path d="M1500.71 995.84H914.319V997.507H1500.71V995.84Z" fill="#3F3E56"/>
<path d="M1500.72 1006.02H901.8V1007.69H1500.72V1006.02Z" fill="#3F3E56"/>
<path d="M1500.71 1016.21H889.282V1017.87H1500.71V1016.21Z" fill="#3F3E56"/>
</g>
<mask id="mask2_76_749" style="mask-type:luminance" maskUnits="userSpaceOnUse" x="0" y="0" width="1537" height="1024">
<path d="M1536 0H0V1024H1536V0Z" fill="white"/>
</mask>
<g mask="url(#mask2_76_749)">
<path d="M1556.48 747.956C1548.65 719.6 1527.64 700.774 1509.04 705.909C1496.28 709.431 1488.17 723.313 1486.86 740.835C1486.48 740.518 1486.13 740.19 1485.75 739.877C1464.48 722.465 1439.18 718.178 1429.26 730.304C1419.34 742.431 1428.54 766.378 1449.81 783.79C1450.19 784.103 1450.59 784.384 1450.97 784.689C1443.83 785.605 1437.61 788.756 1433.56 794.212C1424.43 806.496 1429.49 825.926 1444.68 839.096C1423.62 833.835 1405.1 836.377 1402.63 845.165C1400.71 852.013 1409.08 860.705 1422.67 867.271C1414.95 870.238 1408.5 878.571 1405.43 889.465C1403.22 886.362 1400.47 883.73 1397.14 881.777C1391.99 878.756 1386.12 877.66 1380.08 878.236C1380.98 877.212 1381.86 876.153 1382.7 875.033C1394.59 859.181 1395.54 839.807 1384.81 831.76C1374.13 823.744 1355.9 829.995 1344 845.709C1334.66 822.01 1315.66 807.172 1298.91 811.796C1286.53 815.215 1278.56 828.412 1276.9 845.203C1272.08 839.088 1265.65 835.193 1258.41 834.789C1242.11 833.88 1227.9 850.924 1226.68 872.856C1226.59 874.422 1226.59 875.962 1226.64 877.488C1212.39 870.009 1197.12 870.662 1190.26 879.909C1183.84 888.547 1186.72 902.033 1196.32 913.131C1192.52 913.267 1188.8 914.117 1185.34 915.821C1181.4 917.76 1178.14 920.629 1175.54 924.129C1175.16 918.96 1174.05 913.56 1172.12 908.163C1164.15 885.922 1145.49 872.264 1130.44 877.656C1116.96 882.485 1110.98 900.95 1115.59 920.725C1093.25 917.944 1073.74 925.684 1068.84 940.788C1064.93 952.844 1071.34 966.554 1084.09 977.131C1067.84 972.597 1052.71 975.929 1047.76 986.178C1042.45 997.157 1050.6 1012.36 1066.25 1022.34C1049.44 1024.09 1036.53 1033.77 1036.32 1045.7C1036.16 1055.08 1043.89 1063.34 1055.32 1067.58C1045.39 1074 1039.96 1082.93 1042.93 1089.01C1044.53 1092.28 1048.27 1094.12 1053.12 1094.55C1049.89 1101.22 1048.54 1109.65 1049.23 1118.81C1043.43 1113.63 1036.43 1110.9 1029.22 1111.76C1013.01 1113.7 1001.98 1132.95 1004.57 1154.76C1004.76 1156.32 1005.03 1157.83 1005.34 1159.33C990.003 1154.44 975.086 1157.73 969.927 1168.02C963.92 1180.01 973.414 1196.93 991.132 1205.8L997.589 1244.83H1556.48L1556.48 747.956Z" fill="url(#paint0_linear_76_749)"/>
<path d="M1564.88 817.965C1562.8 816.263 1560.72 814.561 1558.64 812.857C1544.01 829.54 1527.94 844.683 1510.71 858.202C1522.84 840.29 1533.37 821.34 1542.17 801.565C1539.76 800.391 1537.34 799.216 1534.92 798.042C1526.71 813.582 1517.4 828.402 1507.12 842.412C1512.07 826.104 1515.91 809.472 1518.55 792.619C1515.91 792.115 1513.27 791.609 1510.63 791.106C1507.77 803.729 1504.2 816.118 1500.03 828.252C1496.35 810.297 1491.34 792.633 1485.02 775.414C1482.46 776.255 1479.91 777.097 1477.36 777.939C1484.51 802.396 1488.94 827.367 1490.73 852.425C1490.63 852.652 1490.53 852.877 1490.43 853.105C1484.07 830.128 1475.53 807.809 1464.85 786.493C1462.41 787.618 1459.96 788.74 1457.52 789.864C1464.87 807.377 1470.72 825.346 1475.15 843.581C1465.7 828.027 1455.1 813.183 1443.44 799.187C1441.32 800.838 1439.2 802.488 1437.08 804.139C1453.64 826.989 1467.3 851.542 1477.91 877.238C1477.61 877.55 1477.31 877.859 1477.01 878.17C1464.21 859.701 1453.08 839.963 1443.88 819.128C1441.39 820.128 1438.89 821.129 1436.4 822.131C1442.47 838.861 1449.76 855.114 1458.18 870.773C1443.28 859.91 1427.59 850.166 1411.21 841.656C1409.89 843.997 1408.57 846.34 1407.25 848.683C1426.21 860.221 1443.89 873.443 1460.18 888.086C1440.44 879.223 1419.96 872.112 1398.97 866.851C1398.23 869.435 1397.49 872.018 1396.75 874.605C1413.47 880.017 1429.67 886.63 1445.25 894.349C1428.33 892.283 1411.28 891.361 1394.23 891.662C1394.19 894.351 1394.14 897.038 1394.1 899.725C1416.47 900.841 1437.95 904.587 1459.75 909.431C1471.56 910.768 1486.14 915.263 1493.68 924.805C1496.86 928.831 1500.15 932.784 1503.51 936.683C1504.22 937.517 1504.95 938.344 1505.67 939.172C1505.72 938.699 1505.78 938.226 1505.82 937.755C1505.98 936.096 1506.12 934.437 1506.26 932.778C1507 923.867 1507.23 914.919 1507.49 905.984C1507.57 903.074 1505.68 882.26 1506.96 881.615C1530.52 869.761 1555.47 860.453 1581.45 854.024C1580.89 851.395 1580.34 848.765 1579.78 846.135C1562.26 849.234 1544.99 853.615 1528.11 859.212C1541.38 846.41 1553.68 832.631 1564.88 817.965Z" fill="url(#paint1_linear_76_749)"/>
<path d="M1369.03 951.888C1368.69 949.942 1368.35 947.997 1368 946.051C1351.86 948.324 1335.64 949.051 1319.57 948.316C1334.91 944.159 1349.87 938.656 1364.25 931.862C1363.46 930.05 1362.68 928.236 1361.9 926.421C1349.87 931.135 1337.58 934.928 1325.13 937.798C1335.71 931.09 1345.83 923.671 1355.38 915.552C1354.15 914.006 1352.92 912.458 1351.7 910.909C1344.05 916.568 1336.12 921.758 1327.98 926.511C1334.54 914.747 1340.22 902.507 1344.96 889.885C1343.13 889.129 1341.31 888.373 1339.48 887.618C1331.73 904.667 1322.23 920.699 1311.21 935.512C1311.04 935.592 1310.88 935.668 1310.71 935.748C1318.19 919.902 1324.14 903.375 1328.41 886.383C1326.51 885.838 1324.62 885.291 1322.72 884.746C1318.41 898.019 1313.05 910.834 1306.77 923.113C1308.97 909.918 1310.19 896.571 1310.4 883.184C1308.43 883.085 1306.46 882.987 1304.48 882.891C1302.75 903.559 1298.58 923.785 1292.17 943.182C1291.85 943.213 1291.53 943.241 1291.22 943.27C1292.95 926.845 1296.21 910.514 1301.08 894.503C1299.21 893.864 1297.34 893.225 1295.48 892.586C1290.83 904.815 1287.1 917.361 1284.28 930.12C1281.19 916.924 1277.12 903.973 1272.09 891.38C1270.23 892.051 1268.37 892.723 1266.51 893.395C1271.54 908.911 1275.04 924.756 1277.09 940.72C1270.35 926.321 1262.35 912.538 1253.19 899.539C1251.53 900.622 1249.88 901.708 1248.23 902.791C1254.95 913.826 1260.8 925.278 1265.77 937.046C1257.34 927.783 1248.29 919.093 1238.64 911.081C1237.33 912.558 1236.02 914.035 1234.71 915.511C1246.63 926.861 1256.79 939.248 1266.61 952.4C1272.55 958.808 1278.51 968.305 1278.13 977.236C1277.98 981.004 1277.91 984.781 1277.91 988.563C1277.91 989.37 1277.92 990.179 1277.92 990.988C1278.18 990.749 1278.43 990.511 1278.69 990.271C1279.57 989.424 1280.44 988.568 1281.32 987.709C1286 983.099 1290.42 978.229 1294.85 973.375C1296.29 971.794 1305.22 959.295 1306.24 959.551C1325.05 964.248 1343.41 971.033 1360.96 979.911C1361.91 978.18 1362.86 976.447 1363.81 974.717C1352.57 968.036 1340.85 962.198 1328.77 957.221C1342.3 956.457 1355.76 954.683 1369.03 951.888Z" fill="url(#paint2_linear_76_749)"/>
<path d="M1558.24 931.293C1555.76 963.242 1526.94 987.062 1493.87 984.498C1460.79 981.932 1435.99 953.952 1438.47 922.003C1440.95 890.055 1469.77 839.021 1502.84 841.587C1535.92 844.153 1560.72 899.344 1558.24 931.293Z" fill="url(#paint3_linear_76_749)"/>
<path d="M1307.91 1004.67C1305.86 1031.03 1282.08 1050.69 1254.79 1048.57C1227.5 1046.45 1207.04 1023.37 1209.08 997.003C1211.13 970.641 1234.91 928.533 1262.2 930.65C1289.49 932.768 1309.95 978.309 1307.91 1004.67Z" fill="url(#paint4_linear_76_749)"/>
</g>
<mask id="mask3_76_749" style="mask-type:luminance" maskUnits="userSpaceOnUse" x="0" y="0" width="1537" height="1024">
<path d="M1536 0H0V1024H1536V0Z" fill="white"/>
</mask>
<g mask="url(#mask3_76_749)">
<path d="M179.962 916.461C166.283 944.763 120.203 950.796 77.0436 929.933C33.882 909.072 9.98391 869.216 23.6625 840.915C37.3431 812.613 83.4211 806.58 126.581 827.443C169.742 848.304 193.64 888.16 179.962 916.461Z" fill="url(#paint5_linear_76_749)"/>
<path d="M283.118 680.277H285.909V661.157H283.118V680.277Z" fill="#272747"/>
<path d="M195.887 714.662L259.107 660.214L254.892 655.321L191.673 709.769L195.887 714.662Z" fill="url(#paint6_linear_76_749)"/>
<path d="M186.579 925.247H200.772V645.679H186.579V925.247Z" fill="url(#paint7_linear_76_749)"/>
<path d="M186.579 661.158H294.273V645.679H186.579V661.158Z" fill="url(#paint8_linear_76_749)"/>
<path d="M276.409 769.311H292.619C302.328 769.311 310.199 761.44 310.199 751.731V702.394C310.199 692.685 302.328 684.814 292.619 684.814H276.409C266.699 684.814 258.829 692.685 258.829 702.394V751.731C258.829 761.44 266.701 769.311 276.409 769.311Z" fill="url(#paint9_linear_76_749)"/>
<path d="M275.192 684.749H293.835V678.306H275.192V684.749Z" fill="#272747"/>
<path d="M275.192 775.753H293.835V769.31H275.192V775.753Z" fill="#272747"/>
<path opacity="0.6" d="M296.358 769.251H293.411C298.633 767.045 302.314 761.895 302.314 755.88V698.247C302.314 692.502 298.959 687.544 294.111 685.189H296.833C300.964 688.066 303.68 692.842 303.68 698.247V755.88C303.68 761.487 300.755 766.417 296.358 769.251Z" fill="#D35E67"/>
<path opacity="0.6" d="M266.711 698.247V755.88C266.711 761.897 270.394 767.047 275.614 769.251H272.667C268.27 766.417 265.345 761.487 265.345 755.88V698.247C265.345 692.842 268.061 688.064 272.192 685.189H274.913C270.068 687.544 266.711 692.502 266.711 698.247Z" fill="#D35E67"/>
<path opacity="0.6" d="M276.036 698.247V755.88C276.036 761.882 278.209 767.035 281.297 769.251H279.282C276.513 766.421 274.67 761.491 274.67 755.88V698.247C274.67 692.824 276.4 688.06 279.013 685.189H280.889C278.018 687.552 276.036 692.513 276.036 698.247Z" fill="#D35E67"/>
<path opacity="0.6" d="M283.677 769.251L283.976 685.189H285.342L285.041 769.251H283.677Z" fill="#D35E67"/>
<path opacity="0.6" d="M294.357 755.88C294.357 761.491 292.514 766.421 289.745 769.251H287.709C290.808 767.041 292.991 761.891 292.991 755.88V698.247C292.991 692.506 291.003 687.55 288.127 685.189H290.011C292.625 688.06 294.355 692.824 294.355 698.247V755.88H294.357Z" fill="#D35E67"/>
<path d="M282.679 661.158H285.647L280.064 645.679H277.096L282.679 661.158Z" fill="#272747"/>
<path d="M286.347 661.158H283.38L288.963 645.679H291.93L286.347 661.158Z" fill="#272747"/>
<path d="M222.254 955.607C228.708 936.371 210.16 912.797 180.825 902.953C151.49 893.11 122.477 900.725 116.022 919.961C109.568 939.198 128.116 962.771 157.451 972.615C186.786 982.458 215.799 974.843 222.254 955.607Z" fill="#323654"/>
<path d="M197.526 391.006C258.805 391.006 308.482 369.412 308.482 342.774C308.482 316.136 258.805 294.541 197.526 294.541C136.246 294.541 86.5691 316.136 86.5691 342.774C86.5691 369.412 136.246 391.006 197.526 391.006Z" fill="url(#paint10_linear_76_749)"/>
<path d="M367.485 441.076C406.404 441.076 437.955 427.36 437.955 410.442C437.955 393.523 406.404 379.808 367.485 379.808C328.566 379.808 297.015 393.523 297.015 410.442C297.015 427.36 328.566 441.076 367.485 441.076Z" fill="url(#paint11_linear_76_749)"/>
<path d="M112.486 427.168C117.707 426.533 122.945 425.601 127.992 423.878C133.013 422.131 137.961 419.954 142.608 417.11C147.243 414.259 151.671 410.947 155.822 407.228C159.922 403.452 163.766 399.319 167.342 394.907C174.459 386.048 180.437 376.107 185.487 365.668C190.48 355.199 194.671 344.238 197.62 332.892C195.994 344.518 193.077 355.995 189.239 367.21C185.338 378.403 180.398 389.353 173.955 399.608C170.713 404.719 167.1 409.649 163.078 414.314C158.996 418.928 154.476 423.231 149.533 427.116C144.576 430.997 139.086 434.26 133.319 437.039C127.521 439.795 121.344 441.698 115.055 443.187L112.486 427.168Z" fill="#252577"/>
<path d="M12.9455 467.806C85.5495 467.806 144.407 437.753 144.407 400.681C144.407 363.609 85.5495 333.556 12.9455 333.556C-59.6585 333.556 -118.516 363.609 -118.516 400.681C-118.516 437.753 -59.6585 467.806 12.9455 467.806Z" fill="url(#paint12_linear_76_749)"/>
<path d="M91.2385 549.411C175.56 549.411 243.917 514.507 243.917 471.452C243.917 428.396 175.56 393.492 91.2385 393.492C6.91651 393.492 -61.4399 428.396 -61.4399 471.452C-61.4399 514.507 6.91651 549.411 91.2385 549.411Z" fill="url(#paint13_linear_76_749)"/>
<path d="M39.3727 561.834C77.0264 561.834 107.551 546.248 107.551 527.022C107.551 507.796 77.0264 492.21 39.3727 492.21C1.71912 492.21 -28.8052 507.796 -28.8052 527.022C-28.8052 546.248 1.71912 561.834 39.3727 561.834Z" fill="url(#paint14_linear_76_749)"/>
<path d="M296.733 501.451C355.68 501.451 403.466 481.078 403.466 455.946C403.466 430.815 355.68 410.442 296.733 410.442C237.785 410.442 189.999 430.815 189.999 455.946C189.999 481.078 237.785 501.451 296.733 501.451Z" fill="url(#paint15_linear_76_749)"/>
<path d="M263.383 496.181C259.914 507.39 255.551 518.314 249.588 528.236C237.574 548.049 220.34 564.459 200.651 576.051C181.025 587.88 158.339 593.242 135.682 601.52C127.549 604.481 119.343 607.943 111.456 612.315C112.3 608.774 113.093 605.231 113.818 601.684C120.113 569.663 121.946 537.674 123.298 505.813C120.191 521.464 117.031 537.092 113.242 552.501C109.38 567.882 105.183 583.121 99.8011 597.778C94.4128 612.368 88.0558 626.411 80.4925 639.529C79.7696 640.643 79.0712 641.78 78.4179 642.947C76.9945 645.259 75.5343 647.543 74.0229 649.781C66.1156 644.249 58.9107 637.61 53.2459 629.651C47.1654 621.269 42.6578 611.584 39.9053 601.27C37.0708 590.965 35.967 580.065 36.1369 569.135C36.3561 558.203 37.718 547.168 40.6446 536.469C36.4871 546.771 33.8002 557.701 32.2683 568.84C30.7876 579.985 30.5725 591.45 32.3051 602.843C33.9558 614.226 37.6197 625.537 43.4032 635.869C48.8571 645.812 56.404 654.618 64.9707 662.163C61.3007 666.812 57.4566 671.295 53.4528 675.6L45.652 683.534L37.2961 690.897C35.8769 692.091 34.5948 693.399 33.0772 694.495L28.6331 697.868L24.2135 701.233C22.7451 702.355 21.3053 703.498 19.7058 704.485C13.4226 708.596 7.52843 712.638 0.540657 716.851C-6.24437 721.045 -13.1195 725.33 -20.0376 729.78C-26.9599 734.284 -33.9088 738.976 -40.831 744.022C-47.7348 749.136 -54.6017 754.579 -61.2987 760.582C-67.9568 766.662 -74.4366 773.265 -80.513 780.558C-86.5116 787.949 -92.0433 796.008 -96.8745 804.694L-44.1569 829.352C-42.0803 823.697 -39.4568 818.055 -36.2517 812.464C-32.9298 806.914 -29.0427 801.417 -24.7091 796C-20.2957 790.61 -15.4112 785.312 -10.2359 780.077C-4.99509 774.867 0.55909 769.716 6.29963 764.59C12.0934 759.47 18.0511 754.35 24.1213 749.177C30.1199 744.188 36.5977 738.218 42.8544 732.543C44.4559 731.16 45.9284 729.594 47.4153 728.054L51.8697 723.444L56.2995 718.842C57.8007 717.343 59.0971 715.598 60.4979 713.992C63.2402 710.707 66.0029 707.461 68.6838 704.16L76.1753 693.774C85.762 679.684 93.8598 664.717 100.055 649.175C101.595 645.224 103.027 641.251 104.362 637.262C106.621 634.972 109.066 632.787 111.696 630.761C120.271 624.052 130.22 618.787 140.775 614.162C151.319 609.499 162.384 605.401 173.412 600.709C178.926 598.362 184.429 595.865 189.829 593.07C195.23 590.248 200.479 587.135 205.513 583.727C225.618 570.067 242.426 551.774 253.561 530.436C259.09 519.729 262.799 508.299 265.57 496.785C268.362 485.259 270.291 473.612 272.409 462.006C269.554 473.452 266.877 484.962 263.383 496.181Z" fill="#272747"/>
<path d="M96.1043 844.214C94.2406 868.235 72.5728 886.143 47.706 884.214C22.8391 882.284 4.19415 861.247 6.05783 837.228C7.92151 813.209 29.5894 774.84 54.4562 776.769C79.3209 778.697 97.968 820.193 96.1043 844.214Z" fill="url(#paint16_linear_76_749)"/>
<path d="M366.023 1000.52C363.436 1033.85 333.369 1058.7 298.867 1056.02C264.364 1053.34 238.49 1024.15 241.074 990.824C243.659 957.493 273.728 904.255 308.23 906.932C342.733 909.609 368.607 967.186 366.023 1000.52Z" fill="#454A68"/>
<path d="M45.0231 875.974C43.1594 899.995 21.4916 917.903 -3.37526 915.974C-28.24 914.045 -46.8891 893.008 -45.0254 868.989C-43.1618 844.968 -21.4939 806.601 3.3729 808.53C28.2397 810.459 46.8868 851.953 45.0231 875.974Z" fill="#454A68"/>
<path d="M297.513 990.783C296.253 1007.02 281.61 1019.12 264.806 1017.81C248.003 1016.51 235.401 1002.3 236.661 986.063C237.92 969.83 252.563 943.903 269.367 945.205C286.171 946.51 298.772 974.551 297.513 990.783Z" fill="url(#paint17_linear_76_749)"/>
<path d="M179.458 903.225C179.296 901.509 179.137 899.791 178.975 898.074C164.764 898.918 150.604 898.41 136.665 896.643C150.311 894.103 163.709 890.366 176.704 885.465C176.149 883.833 175.596 882.198 175.041 880.566C164.243 883.824 153.285 886.26 142.25 887.882C151.925 882.788 161.249 877.041 170.134 870.648C169.173 869.216 168.213 867.782 167.252 866.349C160.199 870.736 152.936 874.692 145.517 878.258C152.052 868.483 157.858 858.231 162.867 847.581C161.331 846.797 159.797 846.01 158.261 845.224C150.321 859.515 140.921 872.798 130.294 884.914C130.146 884.973 129.997 885.027 129.849 885.084C137.47 871.821 143.806 857.858 148.72 843.37C147.106 842.762 145.492 842.154 143.878 841.546C139.196 852.793 133.634 863.568 127.306 873.812C130.144 862.484 132.143 850.956 133.272 839.321C131.561 839.098 129.851 838.873 128.141 838.65C125.18 856.512 120.134 873.822 113.187 890.247C112.91 890.251 112.634 890.253 112.357 890.257C115.016 876.087 119.005 862.105 124.369 848.513C122.788 847.825 121.205 847.139 119.624 846.451C114.725 856.764 110.592 867.42 107.241 878.326C105.482 866.627 102.853 855.071 99.3547 843.759C97.6917 844.214 96.0267 844.669 94.3637 845.121C97.6425 858.974 99.582 873.009 100.239 887.046C95.3877 874.041 89.3973 861.487 82.3337 849.531C80.8202 850.358 79.3068 851.185 77.7933 852.013C82.8621 862.087 87.1486 872.462 90.6486 883.052C83.9639 874.4 76.6997 866.203 68.8702 858.554C67.625 859.746 66.3778 860.94 65.1326 862.132C74.7111 872.847 82.6839 884.338 90.3025 896.473C95.017 902.467 99.539 911.149 98.5867 918.894C98.1832 922.163 97.8617 925.446 97.5954 928.735C97.5381 929.438 97.4869 930.142 97.4357 930.847C97.6732 930.654 97.9149 930.468 98.1504 930.275C98.9799 929.599 99.8011 928.917 100.62 928.231C105.019 924.549 109.21 920.621 113.404 916.709C114.77 915.435 123.417 905.185 124.289 905.48C140.321 910.889 155.824 918.081 170.471 927.041C171.422 925.602 172.372 924.162 173.32 922.722C164.004 916.119 154.219 910.215 144.054 905.036C155.877 905.322 167.713 904.722 179.458 903.225Z" fill="url(#paint18_linear_76_749)"/>
</g>
<path d="M1322.25 1024C1343.38 981.107 1372.76 944.265 1410.6 915.565C1563.36 799.703 1806.62 851.313 2011.89 1024H1322.25Z" fill="#111017"/>
<path d="M1106.39 1024C1135.42 1002.06 1167.28 984.467 1202.03 972.22C1316.13 932.01 1441.88 954.237 1560.34 1024H1106.39Z" fill="#050210"/>
<path d="M-310.397 1024C-194.109 890.968 -44.0956 826.487 87.7977 870.767C161.012 895.347 218.425 950.077 257.218 1024H-310.397Z" fill="#111017"/>
<path d="M45.0334 1024C145.91 953.75 253.985 932.622 336.306 978.915C356.964 990.532 374.78 1005.8 389.855 1024H45.0334Z" fill="#050210"/>
<path d="M1141 1024C868.178 960.511 583.465 956.848 363 1024H1141Z" fill="#050210"/>
</g>
</g>
<defs>
<linearGradient id="paint0_linear_76_749" x1="1333.49" y1="1292.94" x2="1220.27" y2="768.173" gradientUnits="userSpaceOnUse">
<stop offset="0.3583" stop-color="#1C7EB6"/>
<stop offset="1" stop-color="#44408D"/>
</linearGradient>
<linearGradient id="paint1_linear_76_749" x1="1487.77" y1="939.177" x2="1487.78" y2="775.417" gradientUnits="userSpaceOnUse">
<stop offset="0.3352" stop-color="white"/>
<stop offset="1" stop-color="#74B8ED"/>
</linearGradient>
<linearGradient id="paint2_linear_76_749" x1="1267.96" y1="982.411" x2="1346.49" y2="891.211" gradientUnits="userSpaceOnUse">
<stop stop-color="#84BCEA"/>
<stop offset="1" stop-color="#1C92DA"/>
</linearGradient>
<linearGradient id="paint3_linear_76_749" x1="1493.87" y1="984.498" x2="1504.94" y2="841.748" gradientUnits="userSpaceOnUse">
<stop stop-color="#84BCEA"/>
<stop offset="1" stop-color="#1C92DA"/>
</linearGradient>
<linearGradient id="paint4_linear_76_749" x1="1254.79" y1="1048.57" x2="1263.92" y2="930.785" gradientUnits="userSpaceOnUse">
<stop stop-color="white"/>
<stop offset="1" stop-color="#74B8ED"/>
</linearGradient>
<linearGradient id="paint5_linear_76_749" x1="77.044" y1="929.935" x2="126.587" y2="827.446" gradientUnits="userSpaceOnUse">
<stop stop-color="#44408D"/>
<stop offset="1" stop-color="#1C7EB6"/>
</linearGradient>
<linearGradient id="paint6_linear_76_749" x1="222.718" y1="682.319" x2="227.714" y2="687.97" gradientUnits="userSpaceOnUse">
<stop stop-color="#FB9898"/>
<stop offset="1" stop-color="#E38776"/>
</linearGradient>
<linearGradient id="paint7_linear_76_749" x1="120.235" y1="712.023" x2="267.116" y2="858.904" gradientUnits="userSpaceOnUse">
<stop stop-color="#FB9898"/>
<stop offset="1" stop-color="#E38776"/>
</linearGradient>
<linearGradient id="paint8_linear_76_749" x1="209.633" y1="622.625" x2="271.219" y2="684.211" gradientUnits="userSpaceOnUse">
<stop stop-color="#FB9898"/>
<stop offset="1" stop-color="#E38776"/>
</linearGradient>
<linearGradient id="paint9_linear_76_749" x1="255.697" y1="698.246" x2="313.331" y2="755.88" gradientUnits="userSpaceOnUse">
<stop stop-color="#FF977C"/>
<stop offset="0.1004" stop-color="#FF8A75"/>
<stop offset="0.2862" stop-color="#FF6761"/>
<stop offset="0.4034" stop-color="#FF4E53"/>
<stop offset="0.5243" stop-color="#F24650"/>
<stop offset="0.7491" stop-color="#CF2F4A"/>
<stop offset="1" stop-color="#A11241"/>
</linearGradient>
<linearGradient id="paint10_linear_76_749" x1="197.525" y1="391.007" x2="197.525" y2="294.541" gradientUnits="userSpaceOnUse">
<stop stop-color="#1C7EB6"/>
<stop offset="1" stop-color="#64AADA"/>
</linearGradient>
<linearGradient id="paint11_linear_76_749" x1="367.486" y1="441.074" x2="367.486" y2="379.808" gradientUnits="userSpaceOnUse">
<stop stop-color="#44408D"/>
<stop offset="1" stop-color="#1C7EB6"/>
</linearGradient>
<linearGradient id="paint12_linear_76_749" x1="12.9453" y1="467.806" x2="12.9453" y2="333.556" gradientUnits="userSpaceOnUse">
<stop stop-color="#1C7EB6"/>
<stop offset="1" stop-color="#64AADA"/>
</linearGradient>
<linearGradient id="paint13_linear_76_749" x1="91.2385" y1="549.41" x2="91.2385" y2="393.492" gradientUnits="userSpaceOnUse">
<stop stop-color="#44408D"/>
<stop offset="1" stop-color="#1C7EB6"/>
</linearGradient>
<linearGradient id="paint14_linear_76_749" x1="39.373" y1="561.834" x2="39.373" y2="492.21" gradientUnits="userSpaceOnUse">
<stop stop-color="#2D89BF"/>
<stop offset="1" stop-color="#64BAEC"/>
</linearGradient>
<linearGradient id="paint15_linear_76_749" x1="296.734" y1="501.45" x2="296.734" y2="410.441" gradientUnits="userSpaceOnUse">
<stop stop-color="#2D89BF"/>
<stop offset="1" stop-color="#64BAEC"/>
</linearGradient>
<linearGradient id="paint16_linear_76_749" x1="47.7086" y1="884.214" x2="56.0296" y2="776.891" gradientUnits="userSpaceOnUse">
<stop stop-color="white"/>
<stop offset="1" stop-color="#74B8ED"/>
</linearGradient>
<linearGradient id="paint17_linear_76_749" x1="264.807" y1="1017.82" x2="270.43" y2="945.288" gradientUnits="userSpaceOnUse">
<stop stop-color="white"/>
<stop offset="1" stop-color="#74B8ED"/>
</linearGradient>
<linearGradient id="paint18_linear_76_749" x1="122.294" y1="930.851" x2="122.294" y2="838.651" gradientUnits="userSpaceOnUse">
<stop offset="0.3352" stop-color="white"/>
<stop offset="1" stop-color="#74B8ED"/>
</linearGradient>
<clipPath id="clip0_76_749">
<rect width="1536" height="1024" fill="white"/>
</clipPath>
</defs>
</svg>
