<svg width="1536" height="1024" viewBox="0 0 1536 1024" fill="none" xmlns="http://www.w3.org/2000/svg">
<g clip-path="url(#clip0_76_749)">
<mask id="mask0_76_749" style="mask-type:luminance" maskUnits="userSpaceOnUse" x="0" y="0" width="1537" height="1024">
<path d="M1536 0H0V1024H1536V0Z" fill="white"/>
</mask>
<g mask="url(#mask0_76_749)">
<path d="M592.337 875.624L548.88 971H635.795L592.337 875.624Z" fill="url(#paint0_linear_76_749)"/>
<path d="M354.693 780.487L311.237 910.627H398.152L354.693 780.487Z" fill="url(#paint1_linear_76_749)"/>
<path d="M760.078 866.801L716.622 971H803.537L760.078 866.801Z" fill="url(#paint2_linear_76_749)"/>
<path d="M550.707 861.149L489.124 971H576.037L550.707 861.149Z" fill="url(#paint3_linear_76_749)"/>
<path d="M782.909 877.067L747.221 971H834.136L782.909 877.067Z" fill="url(#paint4_linear_76_749)"/>
<path d="M655.749 888.018L612.291 971H699.206L655.749 888.018Z" fill="url(#paint5_linear_76_749)"/>
<path d="M334.586 726.776L291.127 971H378.042L334.586 726.776Z" fill="url(#paint6_linear_76_749)"/>
<path d="M291.127 820.01L247.671 971H334.586L291.127 820.01Z" fill="url(#paint7_linear_76_749)"/>
<path d="M245.123 845.996L201.667 971H288.58L245.123 845.996Z" fill="url(#paint8_linear_76_749)"/>
<path d="M713.116 850.249L669.657 971H756.572L713.116 850.249Z" fill="url(#paint9_linear_76_749)"/>
<path d="M854.761 838.407L803.537 971H890.45L854.761 838.407Z" fill="url(#paint10_linear_76_749)"/>
<path d="M899.86 861.149L856.402 971H943.317L899.86 861.149Z" fill="url(#paint11_linear_76_749)"/>
<path d="M512.051 850.678L468.594 971H555.507L512.051 850.678Z" fill="url(#paint12_linear_76_749)"/>
<path d="M447.14 805.17L416.631 971H503.546L447.14 805.17Z" fill="url(#paint13_linear_76_749)"/>
<path d="M416.631 820.376L373.174 971H460.089L416.631 820.376Z" fill="url(#paint14_linear_76_749)"/>
<path d="M393.255 795.169L342.028 971H428.943L393.255 795.169Z" fill="url(#paint15_linear_76_749)"/>
<path d="M834.238 897.526L877.695 1024H790.782L834.238 897.526Z" fill="url(#paint16_linear_76_749)"/>
<path d="M445.036 863.22L488.493 950.045H401.578L445.036 863.22Z" fill="url(#paint17_linear_76_749)"/>
<path d="M715.819 891.64L759.275 1024H672.362L715.819 891.64Z" fill="url(#paint18_linear_76_749)"/>
<path d="M875.868 887.869L937.452 1024H850.539L875.868 887.869Z" fill="url(#paint19_linear_76_749)"/>
<path d="M692.988 898.488L728.676 1024H641.763L692.988 898.488Z" fill="url(#paint20_linear_76_749)"/>
<path d="M795.488 905.795L838.944 1024H752.031L795.488 905.795Z" fill="url(#paint21_linear_76_749)"/>
<path d="M465.144 871.489L508.602 1024H421.687L465.144 871.489Z" fill="url(#paint22_linear_76_749)"/>
<path d="M508.602 889.59L552.059 1024H465.144L508.602 889.59Z" fill="url(#paint23_linear_76_749)"/>
<path d="M554.607 906.926L598.063 1024H511.15L554.607 906.926Z" fill="url(#paint24_linear_76_749)"/>
<path d="M762.784 880.597L806.24 1024H719.325L762.784 880.597Z" fill="url(#paint25_linear_76_749)"/>
<path d="M621.136 877.936L672.362 1024H585.447L621.136 877.936Z" fill="url(#paint26_linear_76_749)"/>
<path d="M653.386 903.801L704.612 1024H617.699L653.386 903.801Z" fill="url(#paint27_linear_76_749)"/>
<path d="M576.039 905.138L619.495 1024H532.58L576.039 905.138Z" fill="url(#paint28_linear_76_749)"/>
<path d="M312.338 866.875L355.797 1024H268.882L312.338 866.875Z" fill="url(#paint29_linear_76_749)"/>
<path d="M352.588 879.688L383.097 1024H296.184L352.588 879.688Z" fill="url(#paint30_linear_76_749)"/>
<path d="M383.097 889.833L426.555 1024H339.64L383.097 889.833Z" fill="url(#paint31_linear_76_749)"/>
<path d="M406.475 873.015L457.701 1024H370.786L406.475 873.015Z" fill="url(#paint32_linear_76_749)"/>
</g>
<mask id="mask1_76_749" style="mask-type:luminance" maskUnits="userSpaceOnUse" x="0" y="0" width="1537" height="1024">
<path d="M1536 0H0V1024H1536V0Z" fill="white"/>
</mask>
<g mask="url(#mask1_76_749)">
<path d="M-171.387 1024H491.907C492.908 1017.89 492.491 1012.42 489.736 1007.22C483.217 994.922 467.114 989.747 448.815 992.383C449.055 991.926 449.315 991.494 449.548 991.031C462.594 965.22 461.244 938.267 446.531 930.828C431.819 923.392 409.313 938.287 396.267 964.1C396.032 964.567 395.835 965.034 395.608 965.501C393.044 958.374 388.389 952.697 381.864 949.776C367.171 943.2 348.365 952.812 338.291 971.407C338.907 948.582 332.083 930.14 322.494 929.606C315.023 929.188 307.999 939.764 304.347 955.218C299.542 947.96 289.515 943.229 277.629 942.555C280.314 939.581 282.39 936.155 283.64 932.288C285.571 926.312 285.362 920.035 283.398 913.965C284.653 914.657 285.942 915.319 287.283 915.927C306.27 924.537 326.383 921.102 332.212 908.253C338.016 895.455 327.448 878.152 308.603 869.507C330.821 854.524 341.739 831.629 333.181 815.477C326.854 803.537 311.486 798.349 293.859 800.463C299.045 794.13 301.584 786.639 300.351 779.106C297.578 762.157 276.84 751.442 254.034 755.175C252.406 755.442 250.822 755.792 249.266 756.187C253.706 739.848 249.565 724.318 238.504 719.368C228.172 714.744 214.974 720.769 205.758 733.153C204.753 729.276 203.039 725.656 200.497 722.483C196.571 717.58 191.218 714.297 185.067 712.595C186.335 711.928 187.599 711.217 188.844 710.433C206.485 699.324 214.692 680.641 207.176 668.703C199.688 656.812 179.425 656.105 161.831 667.079C161.558 640.281 148.455 618.562 130.259 616.813C116.808 615.52 104.018 625.494 96.0756 641.37C93.6446 633.553 88.7888 627.311 81.8215 624.191C66.1441 617.175 45.7829 628.586 36.3416 649.679C35.6269 651.278 35.0227 652.886 34.4718 654.498C24.6168 641.655 10.5532 635.668 0.089953 640.956C-8.71645 645.405 -12.6076 656.648 -10.9508 669.366C-21.8032 663.269 -32.7723 662.606 -36.9727 668.348C-39.3873 671.65 -39.1047 676.444 -36.7044 681.535C-43.9297 677.499 -53.6352 675.484 -64.0841 676.454C-52.3102 652.382 -54.2783 627.091 -69.7571 617.368C-81.1993 610.179 -97.104 613.355 -111.323 623.985C-109.99 615.907 -111.53 608.149 -116.357 602.237C-127.222 588.935 -150.538 590.002 -168.436 604.619L-171.391 606.763V1024H-171.387Z" fill="url(#paint33_linear_76_749)"/>
</g>
<mask id="mask2_76_749" style="mask-type:luminance" maskUnits="userSpaceOnUse" x="0" y="0" width="1537" height="1024">
<path d="M1536 0H0V1024H1536V0Z" fill="white"/>
</mask>
<g mask="url(#mask2_76_749)">
<path d="M-102.406 1024V813.367C-99.2623 810.193 -95.8913 808.12 -91.6888 807.526C-81.7396 806.121 -71.8929 813.334 -65.6792 825.139C-65.5154 824.805 -65.372 824.471 -65.2 824.138C-55.6522 805.579 -39.3358 794.945 -28.7558 800.389C-18.1779 805.833 -17.3423 825.289 -26.8901 843.848C-27.0621 844.183 -27.2526 844.497 -27.4287 844.827C-22.1797 843.305 -16.8918 843.616 -12.4189 846.19C-2.35301 851.986 0.00218943 867.043 -6.58827 880.808C6.48206 870.777 20.1463 866.947 24.5229 872.321C27.9328 876.509 24.7318 885.092 17.2525 893.774C23.5276 893.505 30.5399 897.356 35.9712 904.014C36.5713 901.185 37.6915 898.521 39.42 896.151C42.0927 892.49 45.8467 889.952 50.2253 888.529C49.2894 888.088 48.3555 887.617 47.4318 887.091C34.3574 879.649 27.8407 866.445 32.8746 857.596C37.8902 848.783 52.476 847.622 65.5116 854.968C64.848 835.641 73.595 819.562 86.6572 817.715C96.3135 816.351 105.855 823.13 112.089 834.32C113.59 828.606 116.89 823.951 121.813 821.477C132.889 815.915 147.935 823.488 155.419 838.392C155.953 839.455 156.42 840.528 156.848 841.605C164.51 832.088 175.336 827.926 182.915 832.289C189.993 836.364 192.068 846.627 188.738 857.258C191.429 856.201 194.269 855.671 197.2 855.81C201.728 856.025 205.914 857.762 209.513 860.633C209.365 859.609 209.244 858.571 209.175 857.51C208.188 842.498 215.622 829.788 225.782 829.118C235.901 828.453 244.9 839.989 245.944 854.917C261.712 843.721 279.952 842.17 288.684 852.058C295.139 859.367 294.734 871.066 288.826 882.432C294.421 880.54 300.126 880.73 304.9 883.478C315.642 889.663 317.604 906.391 309.285 920.844C308.654 921.94 307.97 922.974 307.264 923.98C318.941 924.293 328.397 929.972 329.743 938.324C330.875 945.353 325.958 952.39 317.827 956.811C325.986 960.567 331.022 966.693 329.448 971.579C328.542 974.389 325.622 976.255 321.63 977.011C327.049 979.521 332.339 984.336 336.2 990.851C345.272 973.773 360.876 964.206 373.117 969.126C382.165 972.763 387.05 983.4 386.865 996.209C391.019 992.008 396.202 989.62 401.701 989.933C414.075 990.642 423.332 1004.71 422.378 1021.36V1024H-102.406Z" fill="url(#paint34_linear_76_749)"/>
</g>
<mask id="mask3_76_749" style="mask-type:luminance" maskUnits="userSpaceOnUse" x="0" y="0" width="1537" height="1024">
<path d="M1536 0H0V1024H1536V0Z" fill="white"/>
</mask>
<g mask="url(#mask3_76_749)">
<path d="M1536 1024V654.447C1530.48 648.878 1524.57 645.241 1517.2 644.198C1499.74 641.733 1482.47 654.389 1471.56 675.101C1471.28 674.515 1471.02 673.927 1470.72 673.343C1453.97 640.782 1425.34 622.127 1406.78 631.677C1388.22 641.227 1386.76 675.365 1403.51 707.926C1403.81 708.514 1404.15 709.063 1404.46 709.642C1395.25 706.972 1385.97 707.52 1378.12 712.036C1360.46 722.205 1356.33 748.622 1367.9 772.774C1344.96 755.173 1320.99 748.456 1313.31 757.883C1307.33 765.229 1312.95 780.29 1326.07 795.523C1315.06 795.052 1302.75 801.808 1293.23 813.488C1292.17 808.526 1290.21 803.85 1287.17 799.695C1282.49 793.272 1275.9 788.82 1268.22 786.319C1269.86 785.545 1271.49 784.72 1273.12 783.796C1296.06 770.74 1307.49 747.571 1298.66 732.049C1289.86 716.587 1264.27 714.551 1241.39 727.439C1242.56 693.529 1227.21 665.319 1204.29 662.082C1187.35 659.687 1170.61 671.58 1159.67 691.216C1157.04 681.193 1151.25 673.022 1142.61 668.684C1123.18 658.926 1096.78 672.211 1083.65 698.358C1082.71 700.223 1081.9 702.108 1081.14 703.996C1067.7 687.296 1048.71 679.997 1035.41 687.651C1022.99 694.8 1019.36 712.804 1025.19 731.458C1020.47 729.604 1015.49 728.67 1010.35 728.916C1002.41 729.293 995.06 732.34 988.746 737.376C989.006 735.58 989.215 733.759 989.338 731.898C991.07 705.561 978.024 683.258 960.201 682.086C942.449 680.921 926.661 701.161 924.824 727.349C897.159 707.707 865.159 704.985 849.838 722.334C838.513 735.158 839.223 755.681 849.59 775.623C839.772 772.303 829.764 772.637 821.387 777.46C802.542 788.31 799.097 817.66 813.695 843.016C814.801 844.939 816.001 846.754 817.242 848.517C796.754 849.068 780.163 859.032 777.802 873.685C775.815 886.018 784.441 898.365 798.71 906.121C784.392 912.71 775.557 923.46 778.32 932.032C779.909 936.962 785.031 940.237 792.033 941.564C782.524 945.967 773.245 954.417 766.47 965.845C750.553 935.881 723.173 919.095 701.7 927.728C685.826 934.109 677.257 952.77 677.577 975.245C670.292 967.874 661.197 963.684 651.547 964.237C629.836 965.482 613.595 990.169 615.268 1019.38V1024H1536Z" fill="url(#paint35_linear_76_749)"/>
</g>
<mask id="mask4_76_749" style="mask-type:luminance" maskUnits="userSpaceOnUse" x="0" y="0" width="1536" height="1024">
<path d="M1536 0H0V1024H1536V0Z" fill="white"/>
</mask>
<g mask="url(#mask4_76_749)">
<path d="M667.757 1136H1535.01V858.279C1539.25 834.276 1529.51 812.492 1513.27 809.623C1499.32 807.158 1485.12 819.47 1478.7 838.197C1477.45 836.795 1476.15 835.415 1474.75 834.09C1455.12 815.516 1428.02 812.284 1414.21 826.867C1408.08 833.348 1405.62 842.265 1406.49 851.794C1397.95 844.382 1388.64 839.534 1379.67 837.825C1382.81 832.728 1383.74 827.674 1381.69 823.705C1377.87 816.319 1365.07 815.114 1351.44 820.208C1355.63 805.811 1353.16 792.126 1343.78 785.404C1331.84 776.849 1312.81 782.49 1298.75 797.804C1300.38 775.027 1291.36 755.821 1276.62 753.006C1262.87 750.377 1248.48 762.861 1241.02 782.238C1239.94 761.883 1231.11 745.499 1216.33 740.516C1197.83 734.268 1175.87 747.84 1162.22 771.938C1146.08 752.879 1123.46 745.229 1108.8 754.989C1092.43 765.888 1092.22 794.331 1108.33 818.517C1112.24 824.385 1116.75 829.445 1121.58 833.615C1116.22 833.611 1111 834.718 1106.19 837.189C1101.96 839.358 1098.4 842.4 1095.47 846.058C1091.56 828.437 1080.36 815.698 1067.12 815.695C1052.95 815.687 1041.1 830.274 1038.03 849.83C1036.56 848.665 1035.03 847.533 1033.42 846.471C1010.87 831.585 983.618 833.1 972.553 849.856C967.634 857.304 966.761 866.509 969.266 875.747C951.467 865.063 932.587 863.248 920.127 872.964C903.27 886.105 903.967 915.753 920.514 942.364C896.269 942.575 876.717 955.983 876.79 972.413C876.863 988.906 896.685 1002.19 921.062 1002.08C922.785 1002.08 924.476 1001.98 926.145 1001.85C921.146 1007.38 917.921 1013.98 917.125 1021.28C916.61 1026.01 917.187 1030.65 918.63 1035.11C905.622 1030.14 892.661 1030.4 884.061 1035.85C887.556 1017.61 885.12 1002.97 876.947 999.841C866.459 995.829 850.358 1012.24 840.1 1036.89C838.241 1012.23 822.772 992.984 803.946 992.973C795.587 992.97 787.907 996.8 781.761 1003.18C781.743 1002.57 781.757 1001.98 781.728 1001.37C780.15 967.59 763.261 940.936 744.004 941.834C724.748 942.732 710.414 970.843 711.992 1004.62C712.021 1005.23 712.091 1005.81 712.127 1006.41C693.864 994.85 674.206 992.67 661.362 1002.68C642.643 1017.27 645.506 1052.24 667.757 1080.77V1136ZM1155.37 846.628C1156 847.935 1156.68 849.191 1157.41 850.392C1156.16 849.129 1154.88 847.928 1153.56 846.796C1154.17 846.77 1154.76 846.686 1155.37 846.628Z" fill="url(#paint36_linear_76_749)"/>
</g>
</g>
<defs>
<linearGradient id="paint0_linear_76_749" x1="592.337" y1="970.999" x2="592.337" y2="875.624" gradientUnits="userSpaceOnUse">
<stop stop-color="#1C7EB6"/>
<stop offset="1" stop-color="#44408D"/>
</linearGradient>
<linearGradient id="paint1_linear_76_749" x1="354.694" y1="910.627" x2="354.694" y2="780.488" gradientUnits="userSpaceOnUse">
<stop stop-color="#1C7EB6"/>
<stop offset="1" stop-color="#44408D"/>
</linearGradient>
<linearGradient id="paint2_linear_76_749" x1="760.079" y1="970.999" x2="760.079" y2="866.8" gradientUnits="userSpaceOnUse">
<stop stop-color="#1C7EB6"/>
<stop offset="1" stop-color="#44408D"/>
</linearGradient>
<linearGradient id="paint3_linear_76_749" x1="532.58" y1="970.999" x2="532.58" y2="861.15" gradientUnits="userSpaceOnUse">
<stop stop-color="#1C7EB6"/>
<stop offset="1" stop-color="#44408D"/>
</linearGradient>
<linearGradient id="paint4_linear_76_749" x1="790.678" y1="970.999" x2="790.678" y2="877.067" gradientUnits="userSpaceOnUse">
<stop stop-color="#1C7EB6"/>
<stop offset="1" stop-color="#44408D"/>
</linearGradient>
<linearGradient id="paint5_linear_76_749" x1="655.749" y1="970.999" x2="655.749" y2="888.019" gradientUnits="userSpaceOnUse">
<stop stop-color="#1C7EB6"/>
<stop offset="1" stop-color="#44408D"/>
</linearGradient>
<linearGradient id="paint6_linear_76_749" x1="334.585" y1="970.999" x2="334.585" y2="726.775" gradientUnits="userSpaceOnUse">
<stop stop-color="#1C7EB6"/>
<stop offset="1" stop-color="#44408D"/>
</linearGradient>
<linearGradient id="paint7_linear_76_749" x1="291.128" y1="970.999" x2="291.128" y2="820.011" gradientUnits="userSpaceOnUse">
<stop stop-color="#1C7EB6"/>
<stop offset="1" stop-color="#44408D"/>
</linearGradient>
<linearGradient id="paint8_linear_76_749" x1="245.123" y1="970.999" x2="245.123" y2="845.996" gradientUnits="userSpaceOnUse">
<stop stop-color="#1C7EB6"/>
<stop offset="1" stop-color="#44408D"/>
</linearGradient>
<linearGradient id="paint9_linear_76_749" x1="713.115" y1="970.999" x2="713.115" y2="850.249" gradientUnits="userSpaceOnUse">
<stop stop-color="#1C7EB6"/>
<stop offset="1" stop-color="#44408D"/>
</linearGradient>
<linearGradient id="paint10_linear_76_749" x1="846.993" y1="970.999" x2="846.993" y2="838.406" gradientUnits="userSpaceOnUse">
<stop stop-color="#1C7EB6"/>
<stop offset="1" stop-color="#44408D"/>
</linearGradient>
<linearGradient id="paint11_linear_76_749" x1="899.86" y1="970.999" x2="899.86" y2="861.15" gradientUnits="userSpaceOnUse">
<stop stop-color="#1C7EB6"/>
<stop offset="1" stop-color="#44408D"/>
</linearGradient>
<linearGradient id="paint12_linear_76_749" x1="512.051" y1="970.999" x2="512.051" y2="850.678" gradientUnits="userSpaceOnUse">
<stop stop-color="#1C7EB6"/>
<stop offset="1" stop-color="#44408D"/>
</linearGradient>
<linearGradient id="paint13_linear_76_749" x1="460.089" y1="970.999" x2="460.089" y2="805.17" gradientUnits="userSpaceOnUse">
<stop stop-color="#1C7EB6"/>
<stop offset="1" stop-color="#44408D"/>
</linearGradient>
<linearGradient id="paint14_linear_76_749" x1="416.632" y1="970.999" x2="416.632" y2="820.377" gradientUnits="userSpaceOnUse">
<stop stop-color="#1C7EB6"/>
<stop offset="1" stop-color="#44408D"/>
</linearGradient>
<linearGradient id="paint15_linear_76_749" x1="385.485" y1="970.999" x2="385.485" y2="795.169" gradientUnits="userSpaceOnUse">
<stop stop-color="#1C7EB6"/>
<stop offset="1" stop-color="#44408D"/>
</linearGradient>
<linearGradient id="paint16_linear_76_749" x1="834.238" y1="1024" x2="834.238" y2="897.526" gradientUnits="userSpaceOnUse">
<stop stop-color="#1C7EB6"/>
<stop offset="1" stop-color="#44408D"/>
</linearGradient>
<linearGradient id="paint17_linear_76_749" x1="445.036" y1="950.046" x2="445.036" y2="863.22" gradientUnits="userSpaceOnUse">
<stop stop-color="#1C7EB6"/>
<stop offset="1" stop-color="#44408D"/>
</linearGradient>
<linearGradient id="paint18_linear_76_749" x1="715.819" y1="1024" x2="715.819" y2="891.639" gradientUnits="userSpaceOnUse">
<stop stop-color="#1C7EB6"/>
<stop offset="1" stop-color="#44408D"/>
</linearGradient>
<linearGradient id="paint19_linear_76_749" x1="893.995" y1="1024" x2="893.995" y2="887.869" gradientUnits="userSpaceOnUse">
<stop stop-color="#1C7EB6"/>
<stop offset="1" stop-color="#44408D"/>
</linearGradient>
<linearGradient id="paint20_linear_76_749" x1="685.22" y1="1024" x2="685.22" y2="898.489" gradientUnits="userSpaceOnUse">
<stop stop-color="#1C7EB6"/>
<stop offset="1" stop-color="#44408D"/>
</linearGradient>
<linearGradient id="paint21_linear_76_749" x1="795.488" y1="1024" x2="795.488" y2="905.795" gradientUnits="userSpaceOnUse">
<stop stop-color="#1C7EB6"/>
<stop offset="1" stop-color="#44408D"/>
</linearGradient>
<linearGradient id="paint22_linear_76_749" x1="465.144" y1="1024" x2="465.144" y2="871.49" gradientUnits="userSpaceOnUse">
<stop stop-color="#1C7EB6"/>
<stop offset="1" stop-color="#44408D"/>
</linearGradient>
<linearGradient id="paint23_linear_76_749" x1="508.602" y1="1024" x2="508.602" y2="889.589" gradientUnits="userSpaceOnUse">
<stop stop-color="#1C7EB6"/>
<stop offset="1" stop-color="#44408D"/>
</linearGradient>
<linearGradient id="paint24_linear_76_749" x1="554.606" y1="1024" x2="554.606" y2="906.926" gradientUnits="userSpaceOnUse">
<stop stop-color="#1C7EB6"/>
<stop offset="1" stop-color="#44408D"/>
</linearGradient>
<linearGradient id="paint25_linear_76_749" x1="762.783" y1="1024" x2="762.783" y2="880.597" gradientUnits="userSpaceOnUse">
<stop stop-color="#1C7EB6"/>
<stop offset="1" stop-color="#44408D"/>
</linearGradient>
<linearGradient id="paint26_linear_76_749" x1="628.905" y1="1024" x2="628.905" y2="877.936" gradientUnits="userSpaceOnUse">
<stop stop-color="#1C7EB6"/>
<stop offset="1" stop-color="#44408D"/>
</linearGradient>
<linearGradient id="paint27_linear_76_749" x1="661.155" y1="1024" x2="661.155" y2="903.801" gradientUnits="userSpaceOnUse">
<stop stop-color="#1C7EB6"/>
<stop offset="1" stop-color="#44408D"/>
</linearGradient>
<linearGradient id="paint28_linear_76_749" x1="576.038" y1="1024" x2="576.038" y2="905.139" gradientUnits="userSpaceOnUse">
<stop stop-color="#1C7EB6"/>
<stop offset="1" stop-color="#44408D"/>
</linearGradient>
<linearGradient id="paint29_linear_76_749" x1="312.34" y1="1024" x2="312.34" y2="866.874" gradientUnits="userSpaceOnUse">
<stop stop-color="#1C7EB6"/>
<stop offset="1" stop-color="#44408D"/>
</linearGradient>
<linearGradient id="paint30_linear_76_749" x1="339.641" y1="1024" x2="339.641" y2="879.688" gradientUnits="userSpaceOnUse">
<stop stop-color="#1C7EB6"/>
<stop offset="1" stop-color="#44408D"/>
</linearGradient>
<linearGradient id="paint31_linear_76_749" x1="383.098" y1="1024" x2="383.098" y2="889.833" gradientUnits="userSpaceOnUse">
<stop stop-color="#1C7EB6"/>
<stop offset="1" stop-color="#44408D"/>
</linearGradient>
<linearGradient id="paint32_linear_76_749" x1="414.244" y1="1024" x2="414.244" y2="873.015" gradientUnits="userSpaceOnUse">
<stop stop-color="#1C7EB6"/>
<stop offset="1" stop-color="#44408D"/>
</linearGradient>
<linearGradient id="paint33_linear_76_749" x1="160.5" y1="1024.01" x2="160.516" y2="592.929" gradientUnits="userSpaceOnUse">
<stop stop-color="#84BCEA"/>
<stop offset="1" stop-color="#1C92DA"/>
</linearGradient>
<linearGradient id="paint34_linear_76_749" x1="139.377" y1="1059.41" x2="174.25" y2="821.289" gradientUnits="userSpaceOnUse">
<stop offset="0.3352" stop-color="white"/>
<stop offset="1" stop-color="#74B8ED"/>
</linearGradient>
<linearGradient id="paint35_linear_76_749" x1="1111.79" y1="1086.13" x2="1050.61" y2="668.344" gradientUnits="userSpaceOnUse">
<stop stop-color="#84BCEA"/>
<stop offset="1" stop-color="#1C92DA"/>
</linearGradient>
<linearGradient id="paint36_linear_76_749" x1="1092.51" y1="1136.02" x2="1092.49" y2="739.005" gradientUnits="userSpaceOnUse">
<stop offset="0.3352" stop-color="white"/>
<stop offset="1" stop-color="#74B8ED"/>
</linearGradient>
<clipPath id="clip0_76_749">
<rect width="1536" height="1024" fill="white"/>
</clipPath>
</defs>
</svg>
