<svg width="1536" height="1024" viewBox="0 0 1536 1024" fill="none" xmlns="http://www.w3.org/2000/svg">
<g clip-path="url(#clip0_76_749)">
<mask id="mask0_76_749" style="mask-type:luminance" maskUnits="userSpaceOnUse" x="0" y="0" width="1537" height="1024">
<path d="M1536 0H0V1024H1536V0Z" fill="white"/>
</mask>
<g mask="url(#mask0_76_749)">
<path d="M0 1024V596.543C5.03398 595.538 9.50272 594.739 14.7415 594.303C42.7704 591.97 73.7567 599.017 95.9324 615.754C120.928 634.62 138.635 652.272 172.849 651.567C187.718 651.26 202.576 647.52 217.324 649.427C238.545 652.169 253.422 666.53 272.212 675.14C302.885 689.195 338.649 694.268 371.503 685.332C408.797 675.191 432.509 643.731 472.807 644.784C497.584 645.431 517.866 658.932 542.448 661.074C566.153 663.138 588.491 654.408 611.25 649.568C643.23 642.769 678.478 644.688 709.304 653.144C743.78 662.602 756.834 681.267 784.826 694.665C833.397 717.914 883.47 675.678 933.423 685.046C948.146 687.808 962.757 692.343 977.73 691.859C1007.45 690.899 1017.81 662.282 1042.98 651.657C1063.05 643.178 1089.4 645.841 1112.08 650.674C1134.76 655.505 1157.48 662.294 1181.25 661.156C1211.17 659.72 1236.99 645.937 1266.75 643.459C1294.29 641.165 1321.99 649.023 1343.4 660.693C1362.56 671.138 1374.94 691.184 1394.67 699.73C1414.37 708.262 1438.41 700.166 1458.01 695.288C1482.94 689.078 1509.67 687.344 1536 689.953V1024H0Z" fill="url(#paint0_linear_76_749)"/>
</g>
<mask id="mask1_76_749" style="mask-type:luminance" maskUnits="userSpaceOnUse" x="0" y="0" width="1537" height="1024">
<path d="M1536 0H0V1024H1536V0Z" fill="white"/>
</mask>
<g mask="url(#mask1_76_749)">
<path d="M1536 981.527V693.502C1530.97 692.611 1526.5 691.903 1521.26 691.515C1493.72 689.484 1466.02 696.445 1444.61 706.787C1425.45 716.042 1413.08 733.805 1393.34 741.38C1373.64 748.939 1349.61 741.767 1330.01 737.442C1304.13 731.732 1275.63 730.249 1248.38 732.953C1218.43 735.926 1195.29 743.301 1164.49 735.881C1127.2 726.895 1103.49 699.019 1063.19 699.951C1038.41 700.525 1018.13 712.487 993.55 714.385C969.844 716.214 947.507 708.479 924.745 704.191C892.766 698.165 857.518 699.865 826.691 707.359C792.215 715.739 779.161 732.279 751.169 744.151C702.599 764.752 652.525 727.327 602.573 735.627C587.849 738.075 573.239 742.093 558.266 741.665C528.543 740.813 518.183 715.457 493.019 706.042C472.942 698.53 446.593 700.889 423.913 705.17C401.236 709.452 378.509 715.467 354.742 714.457C324.827 713.185 299.004 700.973 269.244 698.776C241.705 696.744 214.001 703.705 192.594 714.048C173.437 723.302 161.059 741.065 141.322 748.638C121.624 756.197 97.587 749.025 77.9876 744.702C53.0532 739.201 26.3268 737.663 -0.00634766 739.973V981.527H1536Z" fill="url(#paint1_linear_76_749)"/>
</g>
<mask id="mask2_76_749" style="mask-type:luminance" maskUnits="userSpaceOnUse" x="0" y="0" width="1537" height="1024">
<path d="M1536 0H0V1024H1536V0Z" fill="white"/>
</mask>
<g mask="url(#mask2_76_749)">
<path d="M1538.64 783.178C1535.14 782.928 1531.47 782.942 1527.6 783.301C1508.7 785.05 1491.47 795.564 1472.52 795.857C1438 796.392 1413.48 763.644 1378.99 763.249C1358.76 763.017 1340.52 774.132 1325.25 785.881C1309.99 797.631 1295.26 810.92 1276.07 816.9C1242.57 827.339 1212.89 797.557 1178.12 797.479C1137.15 797.385 1104.48 819.663 1081.11 847.366C1063.71 870.748 1052.07 845.099 1036.45 834.822C1013.62 819.8 986.106 820.757 959.308 828.551C937.122 835.005 921.856 852.583 896.119 850.782C885.594 850.047 875.512 847.307 865.112 845.882C835.015 841.753 804.485 848.749 774.199 852.013C737.141 856.009 708.225 850.969 681.906 831.06C657.697 812.747 635.478 792.326 597.784 793.156C574.562 793.666 553.07 803.076 529.828 802.124C487.496 800.389 458.568 765.942 416.301 763.277C391.516 761.715 368.767 771.66 349.649 782.437C330.531 793.213 312.011 805.571 288.28 810.304C246.866 818.567 211.509 786.754 168.886 784.386C118.673 781.599 77.8525 801.788 48.2487 828.029C21.596 854.866 28.7312 820.607 -2.64209 804.534V1024H1538.64L1538.64 783.178Z" fill="url(#paint2_linear_76_749)"/>
</g>
</g>
<defs>
<linearGradient id="paint0_linear_76_749" x1="768" y1="1086.1" x2="768" y2="593.87" gradientUnits="userSpaceOnUse">
<stop offset="0.3305" stop-color="white"/>
<stop offset="1" stop-color="#64AADA"/>
</linearGradient>
<linearGradient id="paint1_linear_76_749" x1="768" y1="1023.45" x2="768" y2="691.164" gradientUnits="userSpaceOnUse">
<stop offset="0.3305" stop-color="white"/>
<stop offset="1" stop-color="#64AADA"/>
</linearGradient>
<linearGradient id="paint2_linear_76_749" x1="768" y1="1264.76" x2="768" y2="763.115" gradientUnits="userSpaceOnUse">
<stop stop-color="#44408D"/>
<stop offset="1" stop-color="#1C7EB6"/>
</linearGradient>
<clipPath id="clip0_76_749">
<rect width="1536" height="1024" fill="white"/>
</clipPath>
</defs>
</svg>
