<svg width="310" height="407" viewBox="0 0 310 407" fill="none" xmlns="http://www.w3.org/2000/svg">
<g clip-path="url(#clip0_129_19)">
<path d="M222.889 218.294L222.888 218.287C222.837 217.695 222.698 217.15 222.493 216.651C252.937 196.408 273 161.781 273 122.48C273 102.331 267.723 83.3945 258.465 67.0056C264.233 65.9225 267.84 60.1264 266.417 54.9926C293.056 81.9796 309.5 119.058 309.5 159.98C309.5 200.732 293.221 237.616 266.815 264.58C268.728 258.608 264.524 251.494 257.451 251.19L257.448 251.19C257.246 251.181 257.032 251.17 256.815 251.17C239.208 250.128 224.705 236.224 222.918 218.685C222.908 218.557 222.898 218.431 222.889 218.294Z" fill="#FF4E53" stroke="black"/>
<path d="M15 401.024V215.671C27.4877 248.114 50.5688 275.291 80 292.97V331.2C80 350.531 72.1747 368.024 59.4958 380.693L59.4932 380.696C47.9255 392.272 32.3375 399.802 15 401.024Z" stroke="white" stroke-width="10"/>
<path d="M159.21 10C160.88 10 162.55 10.02 164.21 10.07C202.37 11.19 236.96 26.58 262.83 51.08C268.01 55.99 265.68 64.27 259.42 66.25C259.29 66.29 259.15 66.33 259 66.37C258.86 66.41 258.72 66.44 258.57 66.47C258.5 66.49 258.44 66.5 258.37 66.51C258.14 66.56 257.91 66.59 257.67 66.62C257.47 66.64 257.27 66.67 257.06 66.67L256.49 66.7C238.45 67.91 223.76 82.41 222.35 100.43C222.35 100.57 222.33 100.73 222.32 100.86C222.31 101.04 222.29 101.21 222.26 101.38C222.23 101.54 222.2 101.69 222.16 101.84C222.13 101.93 222.11 102.01 222.08 102.1C222.05 102.2 222.01 102.3 221.98 102.4C221.88 102.66 221.76 102.91 221.62 103.16C221.56 103.27 221.49 103.39 221.42 103.49C221.42 103.51 221.4 103.53 221.39 103.54C220.04 105.64 217.47 107.15 215.14 107.15C215.07 107.15 214.99 107.15 214.92 107.15C213.88 107.12 212.91 106.78 212.12 106.06C198.81 93.93 182.34 85 162.9 85C162.64 85 162.39 85 162.13 85.01C161.42 84.99 160.71 84.98 160 84.98C122.79 84.98 91.91 112.08 86.02 147.62C85.6 150.15 85.3 152.72 85.14 155.32C85.09 156.22 85.04 157.13 85.02 158.04C85.01 158.69 85 159.33 85 159.98C85 160.14 85 160.31 85 160.47C85.25 200.94 117.56 233.8 157.81 234.95C158.53 234.98 159.26 234.98 159.99 234.98H160.73C161.48 234.98 162.23 235 162.99 235C167.66 235 172.23 234.56 176.67 233.74C190.88 231.11 202.32 222.98 212.5 213.53C213.18 212.89 214.06 212.6 215 212.56C215.08 212.56 215.16 212.56 215.25 212.56C217.28 212.56 219.58 213.72 220.96 215.22C221 215.26 221.04 215.31 221.08 215.35C221.18 215.47 221.28 215.59 221.38 215.72C221.46 215.82 221.53 215.93 221.6 216.04C221.69 216.19 221.78 216.33 221.85 216.48C222.13 217.03 222.32 217.65 222.38 218.34C222.39 218.48 222.4 218.61 222.41 218.74C224.22 236.53 238.93 250.63 256.79 251.68C257 251.68 257.21 251.69 257.42 251.7C258.48 251.75 259.46 251.95 260.37 252.28C260.53 252.34 260.67 252.4 260.82 252.46C261.1 252.58 261.37 252.71 261.63 252.85C261.65 252.85 261.67 252.85 261.68 252.88C261.81 252.96 261.95 253.04 262.08 253.12C262.22 253.2 262.35 253.29 262.48 253.38C263 253.72 263.47 254.13 263.89 254.57C264.18 254.87 264.44 255.18 264.69 255.5C267.36 259.09 267.48 264.45 263.7 268.09C239.26 291.62 206.87 306.93 170.95 309.59C170.38 309.64 169.8 309.68 169.22 309.71C168.72 309.74 168.21 309.77 167.71 309.8C165.15 309.93 162.58 309.99 159.99 309.99C132.67 309.99 107.05 301.76 84.99 289V290.12C42.57 265.7 13.22 221.15 9.98998 169.51V159.99C9.98998 148.99 11.17 138.27 13.42 127.95C14.06 125.02 14.78 122.13 15.59 119.27C15.93 118.06 16.29 116.86 16.66 115.65C17.03 114.45 17.42 113.25 17.82 112.06C21.28 101.75 25.84 91.96 31.36 82.81C32.84 80.34 34.39 77.92 36.01 75.54C37.23 73.77 38.48 72.01 39.76 70.29C41.48 67.99 43.26 65.75 45.1 63.56C46.02 62.46 46.96 61.38 47.91 60.31C48.23 59.95 48.54 59.6 48.87 59.25C49.23 58.84 49.6 58.44 49.97 58.04C50.74 57.21 51.51 56.4 52.29 55.59C54.41 53.4 56.61 51.27 58.87 49.21C61.05 47.24 63.28 45.31 65.56 43.46C66.03 43.08 66.5 42.71 66.97 42.33C69.79 40.11 72.7 37.96 75.68 35.93C76.18 35.59 76.68 35.26 77.18 34.93C77.68 34.59 78.19 34.26 78.69 33.93C80.21 32.95 81.74 32.01 83.3 31.07C83.82 30.76 84.34 30.46 84.86 30.15C85.85 29.58 86.85 29.01 87.86 28.45C88.44 28.14 89.02 27.82 89.61 27.51C90.14 27.24 90.67 26.95 91.21 26.68C91.92 26.31 92.64 25.94 93.37 25.57C93.73 25.39 94.09 25.22 94.46 25.05C95.13 24.71 95.81 24.38 96.5 24.07C97.15 23.76 97.81 23.46 98.47 23.17C99.19 22.83 99.91 22.51 100.63 22.21C102.69 21.32 104.77 20.48 106.87 19.68C108.47 19.08 110.08 18.5 111.7 17.95C122.98 14.12 134.86 11.6 147.16 10.55C148.39 10.44 149.62 10.36 150.86 10.28C152.1 10.21 153.34 10.16 154.59 10.11C155.25 10.07 155.91 10.07 156.57 10.05C156.8 10.05 157.04 10.03 157.27 10.03C157.91 10.03 158.56 10.01 159.2 10.01M159.2 0.01C158.53 0.01 157.84 0.01 157.17 0.03C156.95 0.03 156.72 0.03 156.5 0.05H156.48H156.43H156.28C156.09 0.06 155.91 0.06 155.72 0.07C155.24 0.07 154.71 0.09 154.11 0.12C152.84 0.17 151.57 0.22 150.31 0.29H150.27H150.23C149.03 0.37 147.67 0.46 146.28 0.58C133.4 1.68 120.68 4.34 108.5 8.47C106.86 9.03 105.18 9.63 103.37 10.31H103.35L103.33 10.33C101.06 11.2 98.84 12.09 96.74 13C95.94 13.33 95.14 13.69 94.34 14.06C93.62 14.38 92.95 14.68 92.31 14.99C91.61 15.31 90.89 15.65 90.12 16.04C89.71 16.23 89.31 16.42 88.91 16.62H88.89L88.87 16.64C88.13 17.02 87.4 17.39 86.68 17.77C86.34 17.94 86.01 18.11 85.68 18.29C85.48 18.39 85.29 18.5 85.09 18.6L85.03 18.63L84.97 18.66C84.58 18.87 84.19 19.08 83.8 19.29L83.16 19.63L83.09 19.67L83.02 19.71C81.96 20.3 80.92 20.89 79.88 21.49L79.81 21.53L79.74 21.57C79.5 21.71 79.26 21.85 79.02 21.99C78.74 22.15 78.46 22.32 78.18 22.49C76.24 23.66 74.69 24.62 73.27 25.53L73.23 25.56L73.19 25.59L72.78 25.86C72.39 26.11 72.01 26.37 71.62 26.63C71.1 26.97 70.58 27.32 70.06 27.67C67.01 29.75 63.89 32.04 60.79 34.48L60.74 34.52L60.69 34.56C60.47 34.74 60.25 34.91 60.04 35.08C59.79 35.28 59.54 35.48 59.28 35.69C56.97 37.56 54.65 39.56 52.17 41.8C49.71 44.05 47.34 46.34 45.11 48.64C44.27 49.51 43.46 50.37 42.64 51.24C42.24 51.67 41.85 52.09 41.47 52.52C41.14 52.88 40.81 53.24 40.49 53.61L40.44 53.67C39.3 54.95 38.32 56.09 37.43 57.15C35.47 59.48 33.55 61.9 31.75 64.31C30.47 66.04 29.17 67.85 27.77 69.87L27.75 69.89L27.73 69.91C25.99 72.46 24.32 75.07 22.77 77.67C16.84 87.5 11.98 98.01 8.32998 108.88C7.86998 110.24 7.46998 111.49 7.08998 112.71C6.75998 113.78 6.34998 115.15 5.94998 116.57C5.10998 119.55 4.32998 122.67 3.63998 125.82C1.20998 136.96 -0.0200195 148.46 -0.0200195 159.99V169.82L-1.95317e-05 170.13C3.35998 223.79 33.26 271.88 79.99 298.78L94.98 307.41V306.22C115.34 315.26 137.51 319.99 159.98 319.99C162.79 319.99 165.55 319.92 168.21 319.79H168.26H168.31L169.06 319.75L169.78 319.71C170.45 319.67 171.11 319.63 171.76 319.57C208.74 316.82 243.85 301.1 270.64 275.31C277.81 268.4 278.68 257.57 272.72 249.55L272.65 249.46L272.58 249.37C272.08 248.74 271.6 248.18 271.1 247.66C270.59 247.13 270.06 246.63 269.5 246.18L268.82 244.82L265.58 243.67C265.31 243.54 265.04 243.42 264.77 243.3L264.66 243.25L264.55 243.2L264.47 243.17C264.28 243.09 264.1 243.02 263.89 242.94L263.84 242.92L263.79 242.9C261.92 242.22 259.94 241.83 257.9 241.73C257.66 241.72 257.42 241.71 257.18 241.7C244.36 240.85 233.74 230.64 232.38 217.86L232.36 217.64V217.56L232.35 217.48C232.19 215.58 231.67 213.76 230.83 212.07C230.57 211.54 230.33 211.14 230.2 210.94L230.13 210.83L230.04 210.68C229.91 210.47 229.65 210.06 229.27 209.58C229.1 209.36 228.94 209.16 228.77 208.96L228.48 208.61L228.31 208.44C228.31 208.44 228.28 208.41 228.26 208.39C224.92 204.8 219.94 202.58 215.25 202.58C215.02 202.58 214.78 202.58 214.55 202.6C211.14 202.75 208.07 204.01 205.68 206.24C194.52 216.6 185.01 222.05 174.85 223.93C170.92 224.65 166.93 225.02 162.99 225.02C162.27 225.02 161.57 225.02 160.86 225H160.79H160.72H159.98C159.34 225 158.73 225 158.22 224.98H158.15H158.08C122.92 223.98 95.2 195.62 94.98 160.43V160.15V160.02V160C94.98 159.42 94.98 158.85 95 158.27C95.02 157.54 95.05 156.78 95.1 155.95C95.24 153.73 95.49 151.49 95.86 149.3C101.08 117.83 128.04 95.01 159.98 95.01C160.6 95.01 161.21 95.01 161.83 95.04H162.16H162.49C162.56 95.04 162.62 95.04 162.69 95.04C162.76 95.04 162.81 95.04 162.88 95.04C177.64 95.04 191.93 101.25 205.36 113.49C207.88 115.79 211.06 117.07 214.54 117.18C214.73 117.18 214.93 117.19 215.12 117.19C220.78 117.19 226.49 114.02 229.71 109.1C229.76 109.02 229.81 108.94 229.86 108.87C230.03 108.61 230.19 108.34 230.35 108.05C230.72 107.38 231.03 106.72 231.3 106.03L231.44 105.68L231.5 105.47C231.53 105.37 231.57 105.28 231.6 105.18C231.63 105.09 231.65 105.01 231.68 104.93L231.74 104.76L231.82 104.46C231.95 103.98 232.03 103.57 232.09 103.27V103.22L232.11 103.17C232.2 102.63 232.27 102.09 232.3 101.54L232.32 101.33V101.22C233.37 88.16 244.01 77.64 257.1 76.73L257.44 76.71C257.98 76.69 258.42 76.64 258.65 76.62H258.77L258.92 76.59C259.18 76.56 259.64 76.5 260.18 76.39C260.38 76.35 260.57 76.32 260.77 76.27C261.02 76.22 261.32 76.15 261.65 76.06C261.91 75.99 262.15 75.92 262.37 75.85H262.41L262.45 75.83C268.81 73.82 273.69 68.49 275.2 61.93C276.72 55.32 274.67 48.57 269.72 43.87C241.14 16.76 203.77 1.23 164.5 0.07C162.84 0.02 161.11 0 159.21 0L159.2 0.01Z" fill="white"/>
</g>
<defs>
<clipPath id="clip0_129_19">
<rect width="310" height="406.19" fill="white"/>
</clipPath>
</defs>
</svg>
